<svg xmlns="http://www.w3.org/2000/svg" xmlns:xlink="http://www.w3.org/1999/xlink" contentStyleType="text/css" data-diagram-type="DESCRIPTION" height="258px" preserveAspectRatio="none" style="width:1033px;height:258px;background:#FFFFFF;" version="1.1" viewBox="0 0 1033 258" width="1033px" zoomAndPan="magnify"><?plantuml 1.2026.3beta6?><defs/><g><!--cluster userDevice--><g class="cluster" data-qualified-name="userDevice" data-source-line="34" id="ent0002"><polygon fill="#ADD8E6" points="16,16,26,6,197.83,6,197.83,199,187.83,209,16,209,16,16" style="stroke:#1E90FF;stroke-width:1;"/><line style="stroke:#1E90FF;stroke-width:1;" x1="187.83" x2="197.83" y1="16" y2="6"/><line style="stroke:#1E90FF;stroke-width:1;" x1="16" x2="187.83" y1="16" y2="16"/><line style="stroke:#1E90FF;stroke-width:1;" x1="187.83" x2="187.83" y1="16" y2="209"/><text fill="#000000" font-family="sans-serif" font-size="14" font-weight="700" lengthAdjust="spacing" textLength="106.4287" x="49.7006" y="31.9951">User's Device</text></g><!--cluster colabEnv--><g class="cluster" data-qualified-name="colabEnv" data-source-line="38" id="ent0004"><polygon fill="#ADD8E6" points="335.83,16,345.83,6,664.6,6,664.6,223,654.6,233,335.83,233,335.83,16" style="stroke:#1E90FF;stroke-width:1;"/><line style="stroke:#1E90FF;stroke-width:1;" x1="654.6" x2="664.6" y1="16" y2="6"/><line style="stroke:#1E90FF;stroke-width:1;" x1="335.83" x2="654.6" y1="16" y2="16"/><line style="stroke:#1E90FF;stroke-width:1;" x1="654.6" x2="654.6" y1="16" y2="233"/><text fill="#000000" font-family="sans-serif" font-size="14" font-weight="700" lengthAdjust="spacing" textLength="209.6377" x="391.3962" y="31.9951">Google Colab Environment</text></g><!--cluster notebook--><g class="cluster" data-qualified-name="colabEnv.notebook" data-source-line="39" id="ent0005"><rect fill="#E6E6FA" height="97" rx="2.5" ry="2.5" style="stroke:#800080;stroke-width:1;" width="264.77" x="367.83" y="104"/><text fill="#000000" font-family="sans-serif" font-size="14" font-weight="700" lengthAdjust="spacing" textLength="125.125" x="437.6525" y="118.9951">Colab Notebook</text></g><!--cluster googleCloud--><g class="cluster" data-qualified-name="googleCloud" data-source-line="44" id="ent0007"><path d="M819.4376,113.3851 C823.3602,106.3203 828.1426,104.2959 833.8492,111.5952 C837.4882,106.0944 843.3902,107.3766 846.0428,112.7058 C849.2166,104.86 855.4744,105.3277 859.9035,111.4612 C863.7405,104.7387 868.0069,104.9072 873.0935,110.075 C877.6997,103.8433 882.7071,104.8252 886.9182,110.5325 C891.4346,103.281 896.1732,104.7777 900.5513,110.6759 C903.6587,103.2988 909.691,102.4271 914.1409,109.405 C918.7078,103.7428 924.9749,102.542 928.4673,110.5324 C931.3258,105.6382 936.4733,103.9562 939.9016,109.9331 C944.7579,103.081 951.6428,103.5911 954.4528,111.8974 C957.358,105.3287 964.1326,103.7149 968.4289,110.4342 C973.4253,105.4528 977.8456,106.1119 980.6563,112.7367 C985.7078,105.9988 991.6877,107.0384 995.739,113.8501 C1000.4494,106.7029 1005.1747,106.4778 1009.6522,114.07 C1015.1979,118.0453 1014.2163,122.7285 1009.1574,126.2737 C1015.8945,129.0395 1015.9126,135.3703 1010.1827,139.1303 C1017.0765,142.6357 1018.4948,148.2262 1011.6459,153.1644 C1017.3321,158.3353 1018.035,162.8429 1010.6935,167.1251 C1015.6975,172.1845 1015.2619,177.7179 1008.7021,181.1334 C1015.7202,185.3328 1015.2092,190.963 1008.0762,194.4998 C1004.5497,200.3359 998.4303,199.8887 995.0769,194.3027 C991.425,200.0759 984.5267,201.1244 981.3414,193.8129 C978.1524,199.814 971.9333,199.5431 968.2424,194.403 C965.1064,200.7832 959.1597,202.0534 954.8072,195.6851 C950.8752,201.2159 944.9459,200.9212 942.1394,194.4929 C938.074,202.196 931.4582,200.2921 927.5628,194.3119 C923.6866,199.8452 919.3322,200.2067 914.9638,194.8831 C911.1723,201.0332 905.6831,202.3859 901.2345,195.5792 C897.2573,201.3953 892.6391,202.261 887.9257,196.4197 C883.4096,203.8359 877.58,202.3092 873.4112,196.0511 C868.0771,203.0337 863.315,201.9097 859.2453,194.7818 C855.9909,200.7439 850.9745,201.0135 847.2364,195.2783 C842.9119,202.8716 835.7089,201.1563 832.4553,194.191 C829.2443,199.9271 823.9626,200.0711 820.1473,194.8711 C812.6364,190.9523 812.3265,186.3479 818.9705,181.2099 C812.467,177.1843 810.5526,171.1497 817.9191,166.1555 C810.8016,163.5914 811.0519,159.7274 815.4021,154.6538 C809.5207,149.2087 810.534,142.5629 817.673,139.0076 C812.3184,134.5425 812.4265,130.6442 818.4163,126.874 C811.6757,122.3761 811.9304,116.8043 819.4376,113.3851" fill="#F8F8F8" style="stroke:#696969;stroke-width:1;"/><text fill="#000000" font-family="sans-serif" font-size="14" font-weight="700" lengthAdjust="spacing" textLength="170.7891" x="827.4755" y="129.9951">Google Infrastructure</text></g><!--entity browser--><g class="entity" data-qualified-name="userDevice.browser" data-source-line="35" id="ent0003"><rect fill="#F5DEB3" height="46.2969" rx="2.5" ry="2.5" style="stroke:#A0522D;stroke-width:0.5;" width="132.832" x="40" y="138.85"/><rect fill="#F5DEB3" height="10" style="stroke:#A0522D;stroke-width:0.5;" width="15" x="152.832" y="143.85"/><rect fill="#F5DEB3" height="2" style="stroke:#A0522D;stroke-width:0.5;" width="4" x="150.832" y="145.85"/><rect fill="#F5DEB3" height="2" style="stroke:#A0522D;stroke-width:0.5;" width="4" x="150.832" y="149.85"/><text fill="#000000" font-family="sans-serif" font-size="14" lengthAdjust="spacing" textLength="92.832" x="55" y="171.8451">Web Browser</text></g><!--entity script--><g class="entity" data-qualified-name="colabEnv.notebook.script" data-source-line="40" id="ent0006"><rect fill="#F5DEB3" height="46.2969" rx="2.5" ry="2.5" style="stroke:#A0522D;stroke-width:0.5;" width="232.7666" x="383.83" y="138.85"/><rect fill="#F5DEB3" height="10" style="stroke:#A0522D;stroke-width:0.5;" width="15" x="596.5966" y="143.85"/><rect fill="#F5DEB3" height="2" style="stroke:#A0522D;stroke-width:0.5;" width="4" x="594.5966" y="145.85"/><rect fill="#F5DEB3" height="2" style="stroke:#A0522D;stroke-width:0.5;" width="4" x="594.5966" y="149.85"/><text fill="#000000" font-family="sans-serif" font-size="14" lengthAdjust="spacing" textLength="192.7666" x="398.83" y="171.8451">Python Gemini Client Script</text></g><!--entity geminiApi--><g class="entity" data-qualified-name="googleCloud.geminiApi" data-source-line="45" id="ent0008"><rect fill="#F5DEB3" height="46.2969" rx="2.5" ry="2.5" style="stroke:#A0522D;stroke-width:0.5;" width="172.542" x="826.6" y="138.85"/><rect fill="#F5DEB3" height="10" style="stroke:#A0522D;stroke-width:0.5;" width="15" x="979.142" y="143.85"/><rect fill="#F5DEB3" height="2" style="stroke:#A0522D;stroke-width:0.5;" width="4" x="977.142" y="145.85"/><rect fill="#F5DEB3" height="2" style="stroke:#A0522D;stroke-width:0.5;" width="4" x="977.142" y="149.85"/><text fill="#000000" font-family="sans-serif" font-size="14" lengthAdjust="spacing" textLength="132.542" x="841.6" y="171.8451">Gemini API Service</text></g><!--link userDevice to colabEnv--><g class="link" data-entity-1="ent0002" data-entity-2="ent0004" data-link-type="dependency" data-source-line="48" id="lnk9"><path d="M204.5194,38 C214.7594,38 223.3151,38 234.3873,38 C256.5319,38 280.0075,38 303.48,38 C309.3481,38 315.2161,38 321.0629,38 C323.9864,38 326.9046,38 329.8149,38 C331.27,38 332.7232,38 334.1741,38 C334.5369,38 328.8994,38 329.2619,38" fill="none" id="userDevice-colabEnv" style="stroke:#181818;stroke-width:1;"/><polygon fill="#181818" points="198.5194,38,207.5194,42,203.5194,38,207.5194,34,198.5194,38" style="stroke:#181818;stroke-width:1;"/><polygon fill="#181818" points="335.2619,38,326.2619,34,330.2619,38,326.2619,42,335.2619,38" style="stroke:#181818;stroke-width:1;"/><text fill="#000000" font-family="sans-serif" font-size="13" font-weight="700" lengthAdjust="spacing" textLength="47.5059" x="255.33" y="51.0669">HTTPS</text></g><!--link script to geminiApi--><g class="link" data-entity-1="ent0006" data-entity-2="ent0008" data-link-type="dependency" data-source-line="49" id="lnk10"><path d="M617.09,162 C683.57,162 759.43,162 820.16,162" fill="none" id="script-to-geminiApi" style="stroke:#181818;stroke-width:1;"/><polygon fill="#181818" points="826.16,162,817.16,158,821.16,162,817.16,166,826.16,162" style="stroke:#181818;stroke-width:1;"/><text fill="#000000" font-family="sans-serif" font-size="13" font-weight="700" lengthAdjust="spacing" textLength="76.4575" x="644.62" y="175.0669">HTTPS API</text></g><?plantuml-src bL5DIyD04BtlhnZgGGWKjfMMA2AaJLAzIA6AvsqoJPUcEs6oKOhutyrkQZ-q5zdBxfktRzwyAN5bmHAmBjOMSisOMKr6h7MEK5ja9BkhK8XweqsbM6t1K5lw500JuXnvIYKnN0sIMvcc3bNPfc1gJBwlH74S9cFnTQgHqROYWyR-5OhaQ3YCBmcbepYPt9mBER_A5EK5Hw6KCfINX99nCawZNuvAQlA_8kDRToww2Tqv5r5izKfbzbywQHh6qtETKXjqiGEnNTElx6kiO23bQGZAR1mw74WXXDzFxxL6lguXndUTOGzK3KsBT4zlxxY2tXikOSBqqH8ySzdTdQTER4Ra8cuTgoKavbqpcMtxrRCpXxQWLptkezUndydYacZZgMR_yDGp2_DTEwY16MwrqJ0jjKCN6UkgQrBxQ_lhoxdgblLZwyciMDMMcymstCrQ-ChqiDEJJliMqVm95iY7T0eFHvLs-YTHtVVx3ySHxo087bzUveiW49qbSFN3voF1DGY2Rm00?></g></svg>