<svg xmlns="http://www.w3.org/2000/svg" xmlns:xlink="http://www.w3.org/1999/xlink" contentStyleType="text/css" data-diagram-type="DESCRIPTION" height="552px" preserveAspectRatio="none" style="width:1108px;height:552px;background:#FFFFFF;" version="1.1" viewBox="0 0 1108 552" width="1108px" zoomAndPan="magnify"><?plantuml 1.2026.3beta5?><defs><linearGradient id="g5sn33d09wm2d0" x1="0%" x2="100%" y1="50%" y2="50%"><stop offset="0%" stop-color="#ADD8E6"/><stop offset="100%" stop-color="#87CEEB"/></linearGradient><linearGradient id="g5sn33d09wm2d1" x1="0%" x2="100%" y1="50%" y2="50%"><stop offset="0%" stop-color="#FFDAB9"/><stop offset="100%" stop-color="#FFFFE0"/></linearGradient></defs><g><g class="title" data-source-line="43"><text fill="#000000" font-family="sans-serif" font-size="14" font-weight="700" lengthAdjust="spacing" textLength="350.834" x="375.1685" y="22.9951">COSYSMO Custom GPT Deployment Diagram</text></g><!--cluster userDevice--><g class="cluster" data-qualified-name="userDevice" data-source-line="46" id="ent0002"><polygon fill="url(#g5sn33d09wm2d0)" points="16,63.4011,26,53.4011,197.83,53.4011,197.83,181.4011,187.83,191.4011,16,191.4011,16,63.4011" style="stroke:#808080;stroke-width:1;"/><line style="stroke:#808080;stroke-width:1;" x1="187.83" x2="197.83" y1="63.4011" y2="53.4011"/><line style="stroke:#808080;stroke-width:1;" x1="16" x2="187.83" y1="63.4011" y2="63.4011"/><line style="stroke:#808080;stroke-width:1;" x1="187.83" x2="187.83" y1="63.4011" y2="191.4011"/><text fill="#000000" font-family="sans-serif" font-size="14" font-weight="700" lengthAdjust="spacing" textLength="106.4287" x="49.7006" y="79.3962">User's Device</text></g><!--cluster openai--><g class="cluster" data-qualified-name="openai" data-source-line="51" id="ent0004"><path d="M314.3502,68.1236 C321.4776,55.1993 335.5782,55.9586 343.0615,67.7094 C349.6877,50.7533 363.2233,47.3074 374.6024,63.1369 C384.7731,45.9797 399.6297,45.0065 410.2044,62.7245 C417.4626,47.2179 433.3877,47.6352 442.5157,60.6028 C450.983,47.4478 461.8949,43.2969 473.0259,57.6483 C484.8896,44.9856 494.7556,43.6227 503.6054,60.7427 C514.1465,45.7031 524.3262,45.3836 534.0044,61.5825 C545.4643,49.9603 556.0231,50.3235 563.5734,65.8419 C573.0768,47.7798 588.7898,48.8749 597.4064,66.6784 C609.808,50.382 626.9342,54.903 632.71,73.4011 C634.9318,72.6012 636.8291,73.5617 636.4577,76.2152 C652.5588,82.5982 652.8052,94.698 639.8228,104.5366 C656.7595,118.1028 654.1029,129.3612 636.085,139.1531 C652.1575,143.5813 654.91,155.7424 642.3212,166.6669 C655.6655,177.589 653.0867,189.1411 638.7724,196.8067 C657.6426,206.5195 654.1136,217.2806 641.4797,229.5947 C657.3084,238.55 658.3787,252.8173 642.3497,262.6121 C657.5345,269.9169 656.1068,281.7404 645.0944,291.5316 C662.042,299.5947 660.4178,315.1162 646.0938,324.1377 C658.4458,335.1918 658.1763,345.8784 643.1204,354.2238 C658.8857,363.5913 655.6141,374.5469 642.4729,383.27 C657.8539,393.6992 658.0901,403.0513 642.4452,413.452 C655.6484,424.2296 653.8418,434.6813 638.843,441.886 C651.3698,452.8532 654.1524,464.6417 636.4472,473.3034 C651.0656,488.1326 648.3809,505.6634 625.71,509.4011 C628.6347,510.1816 629.9106,511.4569 628.1358,514.4814 C617.3169,527.9707 607.3927,531.6478 595.4997,515.6709 C588.3059,529.9871 574.7839,530.6349 565.1855,518.4182 C554.5123,531.4365 543.914,532.3168 535.106,516.4742 C526.7371,531.6129 517.3786,534.273 505.1522,520.466 C497.8822,535.98 480.2798,537.5066 469.8696,524.3273 C461.0846,536.0796 447.3291,534.3026 441.3507,521.1176 C430.1323,533.736 417.8738,532.6755 411.0168,516.5198 C400.3059,532.3974 387.9118,529.1229 378.0886,515.528 C367.9884,533.6718 353.8687,533.4945 342.5432,516.7773 C324.1372,532.1733 307.7925,525.8995 303.83,502.4011 C305.9379,503.9607 306.6014,505.7331 303.9115,507.3715 C289.2315,499.4146 286.3288,484.3028 303.1616,475.602 C291.7739,466.128 291.8673,452.2292 307.0888,446.3245 C289.9009,435.7785 289.0792,422.9491 305.6191,410.9998 C290.0157,405.5623 288.049,390.9988 301.0848,381.2032 C289.9449,370.7135 290.2153,362.4821 303.5935,354.2767 C289.9324,346.4871 289.2387,331.4772 303.8708,323.9463 C288.1662,314.4069 288.2625,301.5017 301.1524,289.6931 C288.6296,278.1923 287.7319,268.7702 302.6923,258.632 C286.5654,247.7524 289.7354,236.5177 304.5454,227.4783 C292.3538,217.248 292.9979,208.9776 306.4706,200.5845 C289.8274,190.4306 290.9313,179.9424 306.3687,169.6827 C294.0639,159.9017 293.314,149.1635 306.1935,139.2376 C292.5051,129.6756 289.7939,116.3082 306.7004,107.2307 C285.8113,92.5705 289.8558,76.8272 310.83,66.4011 C312.7216,64.9734 314.1191,66.1578 314.3502,68.1236" fill="#F5F5F5" style="stroke:#181818;stroke-width:1;"/><text fill="#000000" font-family="sans-serif" font-size="14" font-weight="700" lengthAdjust="spacing" textLength="173.1748" x="381.6826" y="84.3962">OpenAI Infrastructure</text></g><!--cluster chatgptServer--><g class="cluster" data-qualified-name="openai.chatgptServer" data-source-line="52" id="ent0005"><polygon fill="url(#g5sn33d09wm2d0)" points="327.83,127.4011,337.83,117.4011,608.71,117.4011,608.71,475.4011,598.71,485.4011,327.83,485.4011,327.83,127.4011" style="stroke:#808080;stroke-width:1;"/><line style="stroke:#808080;stroke-width:1;" x1="598.71" x2="608.71" y1="127.4011" y2="117.4011"/><line style="stroke:#808080;stroke-width:1;" x1="327.83" x2="598.71" y1="127.4011" y2="127.4011"/><line style="stroke:#808080;stroke-width:1;" x1="598.71" x2="598.71" y1="127.4011" y2="485.4011"/><text fill="#000000" font-family="sans-serif" font-size="14" font-weight="700" lengthAdjust="spacing" textLength="124.5645" x="401.9878" y="143.3962">ChatGPT Server</text></g><!--cluster customGPT--><g class="cluster" data-qualified-name="openai.chatgptServer.customGPT" data-source-line="53" id="ent0006"><rect fill="#FFFFFF" height="280" rx="2.5" ry="2.5" style="stroke:#000000;stroke-width:1;" width="216.88" x="359.83" y="173.4011"/><text fill="#000000" font-family="sans-serif" font-size="14" font-weight="700" lengthAdjust="spacing" textLength="178.835" x="378.8525" y="188.3962">COSYSMO Custom GPT</text></g><!--cluster cosysmoServer--><g class="cluster" data-qualified-name="cosysmoServer" data-source-line="65" id="ent0012"><polygon fill="url(#g5sn33d09wm2d0)" points="795.06,178.4011,805.06,168.4011,1061.82,168.4011,1061.82,296.4011,1051.82,306.4011,795.06,306.4011,795.06,178.4011" style="stroke:#808080;stroke-width:1;"/><line style="stroke:#808080;stroke-width:1;" x1="1051.82" x2="1061.82" y1="178.4011" y2="168.4011"/><line style="stroke:#808080;stroke-width:1;" x1="795.06" x2="1051.82" y1="178.4011" y2="178.4011"/><line style="stroke:#808080;stroke-width:1;" x1="1051.82" x2="1051.82" y1="178.4011" y2="306.4011"/><text fill="#000000" font-family="sans-serif" font-size="14" font-weight="700" lengthAdjust="spacing" textLength="191.2012" x="828.8394" y="194.3962">softwarecost.org Server</text></g><!--entity browser--><g class="entity" data-qualified-name="userDevice.browser" data-source-line="47" id="ent0003"><rect fill="url(#g5sn33d09wm2d1)" height="46.2969" rx="2.5" ry="2.5" style="stroke:#000000;stroke-width:0.5;" width="132.832" x="40" y="121.2511"/><rect fill="url(#g5sn33d09wm2d1)" height="10" style="stroke:#000000;stroke-width:0.5;" width="15" x="152.832" y="126.2511"/><rect fill="url(#g5sn33d09wm2d1)" height="2" style="stroke:#000000;stroke-width:0.5;" width="4" x="150.832" y="128.2511"/><rect fill="url(#g5sn33d09wm2d1)" height="2" style="stroke:#000000;stroke-width:0.5;" width="4" x="150.832" y="132.2511"/><text fill="#000000" font-family="sans-serif" font-size="14" lengthAdjust="spacing" textLength="92.832" x="55" y="154.2462">Web Browser</text></g><!--entity kb--><g class="entity" data-qualified-name="openai.chatgptServer.customGPT.kb" data-source-line="54" id="ent0007"><path d="M400.52,319.7511 C400.52,309.7511 468.27,309.7511 468.27,309.7511 C468.27,309.7511 536.02,309.7511 536.02,319.7511 L536.02,345.048 C536.02,355.048 468.27,355.048 468.27,355.048 C468.27,355.048 400.52,355.048 400.52,345.048 L400.52,319.7511" fill="#90EE90" style="stroke:#000000;stroke-width:0.5;"/><path d="M400.52,319.7511 C400.52,329.7511 468.27,329.7511 468.27,329.7511 C468.27,329.7511 536.02,329.7511 536.02,319.7511" fill="none" style="stroke:#000000;stroke-width:0.5;"/><text fill="#000000" font-family="sans-serif" font-size="14" lengthAdjust="spacing" textLength="115.5" x="410.52" y="346.7462">Knowledge Base</text></g><!--entity instructions--><g class="entity" data-qualified-name="openai.chatgptServer.customGPT.instructions" data-source-line="55" id="ent0008"><rect fill="#FFFFF0" height="39.2969" rx="2.5" ry="2.5" style="stroke:#181818;stroke-width:0.5;" width="168.8789" x="383.83" y="235.7511"/><polygon fill="#FFFFF0" points="535.7089,240.7511,535.7089,254.7511,547.7089,254.7511,547.7089,246.7511,541.7089,240.7511,535.7089,240.7511" style="stroke:#181818;stroke-width:0.5;"/><line style="stroke:#181818;stroke-width:0.5;" x1="541.7089" x2="541.7089" y1="240.7511" y2="246.7511"/><line style="stroke:#181818;stroke-width:0.5;" x1="547.7089" x2="541.7089" y1="246.7511" y2="246.7511"/><text fill="#000000" font-family="sans-serif" font-size="14" lengthAdjust="spacing" textLength="138.8789" x="393.83" y="261.7462">System Instructions</text></g><!--entity apiSchema--><g class="entity" data-qualified-name="openai.chatgptServer.customGPT.apiSchema" data-source-line="56" id="ent0009"><rect fill="#FFFFF0" height="39.2969" rx="2.5" ry="2.5" style="stroke:#181818;stroke-width:0.5;" width="112.8857" x="411.83" y="389.7511"/><polygon fill="#FFFFF0" points="507.7157,394.7511,507.7157,408.7511,519.7157,408.7511,519.7157,400.7511,513.7157,394.7511,507.7157,394.7511" style="stroke:#181818;stroke-width:0.5;"/><line style="stroke:#181818;stroke-width:0.5;" x1="513.7157" x2="513.7157" y1="394.7511" y2="400.7511"/><line style="stroke:#181818;stroke-width:0.5;" x1="519.7157" x2="513.7157" y1="400.7511" y2="400.7511"/><text fill="#000000" font-family="sans-serif" font-size="14" lengthAdjust="spacing" textLength="82.8857" x="421.83" y="415.7462">API Schema</text></g><!--entity cosysmo--><g class="entity" data-qualified-name="cosysmoServer.cosysmo" data-source-line="66" id="ent0013"><rect fill="url(#g5sn33d09wm2d1)" height="46.2969" rx="2.5" ry="2.5" style="stroke:#000000;stroke-width:0.5;" width="185.7627" x="835.06" y="236.2511"/><rect fill="url(#g5sn33d09wm2d1)" height="10" style="stroke:#000000;stroke-width:0.5;" width="15" x="1000.8227" y="241.2511"/><rect fill="url(#g5sn33d09wm2d1)" height="2" style="stroke:#000000;stroke-width:0.5;" width="4" x="998.8227" y="243.2511"/><rect fill="url(#g5sn33d09wm2d1)" height="2" style="stroke:#000000;stroke-width:0.5;" width="4" x="998.8227" y="247.2511"/><text fill="#000000" font-family="sans-serif" font-size="14" lengthAdjust="spacing" textLength="145.7627" x="850.06" y="269.2462">COSYSMO Calculator</text></g><g class="entity" data-qualified-name="GMN14" data-source-line="69" id="ent0015"><path d="M762.71,118.8311 L762.71,143.9639 L1093.1709,143.9639 L1093.1709,128.8311 L1083.1709,118.8311 L762.71,118.8311" fill="#FEFFDD" style="stroke:#181818;stroke-width:0.5;"/><path d="M1083.1709,118.8311 L1083.1709,128.8311 L1093.1709,128.8311 L1083.1709,118.8311" fill="#FEFFDD" style="stroke:#181818;stroke-width:1;"/><text fill="#000000" font-family="sans-serif" font-size="13" lengthAdjust="spacing" textLength="309.4609" x="768.71" y="135.898">URL: https://softwarecost.org/tools/cosysmo_ai/</text></g><!--link kb to instructions--><!--link apiSchema to kb--><!--link cosysmoServer to GMN14--><g class="link" data-entity-1="ent0012" data-entity-2="ent0015" data-link-type="association" data-source-line="69" id="lnk16"><path d="M928.17,168.2748 C928.17,168.1861 928.17,168.0974 928.17,168.0087 C928.17,167.8313 928.17,167.6539 928.17,167.4764 C928.17,167.1213 928.17,166.766 928.17,166.4107 C928.17,165.7 928.17,164.9891 928.17,164.279 C928.17,162.859 928.17,161.4426 928.17,160.0395 C928.17,154.4274 928.17,149.0286 928.17,144.4611" fill="none" id="cosysmoServer-GMN14" style="stroke:#181818;stroke-width:1;stroke-dasharray:7,7;"/></g><!--link userDevice to openai--><g class="link" data-entity-1="ent0002" data-entity-2="ent0004" data-link-type="dependency" data-source-line="73" id="lnk17"><path d="M204.1038,85.4011 C206.5111,85.4011 206.5357,85.4011 208.9932,85.4011 C213.9082,85.4011 218.9188,85.4011 224.0058,85.4011 C244.354,85.4011 265.9253,85.4011 287.4938,85.4011 C290.1898,85.4011 286.8858,85.4011 289.5794,85.4011" fill="none" id="userDevice-openai" style="stroke:#181818;stroke-width:1;"/><polygon fill="#181818" points="198.1038,85.4011,207.1038,89.4011,203.1038,85.4011,207.1038,81.4011,198.1038,85.4011" style="stroke:#181818;stroke-width:1;"/><polygon fill="#181818" points="295.5794,85.4011,286.5794,81.4011,290.5794,85.4011,286.5794,89.4011,295.5794,85.4011" style="stroke:#181818;stroke-width:1;"/><text fill="#000000" font-family="sans-serif" font-size="13" font-weight="700" lengthAdjust="spacing" textLength="47.5059" x="221.36" y="98.468">HTTPS</text></g><!--link customGPT to cosysmoServer--><g class="link" data-entity-1="ent0006" data-entity-2="ent0012" data-link-type="dependency" data-source-line="74" id="lnk18"><path d="M583.9992,200.4011 C595.9516,200.4011 604.7213,200.4011 617.6453,200.4011 C643.4934,200.4011 670.8953,200.4011 698.2938,200.4011 C725.6922,200.4011 753.0871,200.4011 778.9211,200.4011 C782.1503,200.4011 785.3552,200.4011 788.5326,200.4011 C790.1213,200.4011 791.7032,200.4011 793.2778,200.4011 C793.6714,200.4011 788.0646,200.4011 788.4574,200.4011" fill="none" id="customGPT-cosysmoServer" style="stroke:#181818;stroke-width:1;"/><polygon fill="#181818" points="577.9992,200.4011,586.9992,204.4011,582.9992,200.4011,586.9992,196.4011,577.9992,200.4011" style="stroke:#181818;stroke-width:1;"/><polygon fill="#181818" points="794.4574,200.4011,785.4574,196.4011,789.4574,200.4011,785.4574,204.4011,794.4574,200.4011" style="stroke:#181818;stroke-width:1;"/><text fill="#000000" font-family="sans-serif" font-size="13" font-weight="700" lengthAdjust="spacing" textLength="47.5059" x="650.12" y="213.468">HTTPS</text></g><?plantuml-src ZLHXQzim4FskNt5u7mA1BEs-R9GnQDAobNMqp2sbZ35a-soBo3eZdPk6jVzzafmcJfD10uP8VlVqxjwpHd26hQPLWuRXJCdAoWPAiZ2_Ik_J7rSmxnnJ0r-lRuJ6ae49hAfgXa9Pp5cH4RKg41oZHU9LYqAuXJAj34ovfgw0lm9W9lD5PQapnPoqvx-h5MFQq0B5yx12MbQbpFbWaNeWkzh56_A7HopP0csFyrsi3fHV1k4ptU7JkqyVv-VdirsgGhBCfDkdoxGdEi2d0rzb4SqkKKvDIoPCzArCBSgyRhkoV8eQxr5hMWRI0QioZcqNH-xUsl4oJ7bNN71Dcag_lSq395eP35u3MQxfbHqEMpW-EWA04U0ZMmckbRao5MJ8Ip-j7ZNK9CqYL7quFXA25Njn-_axa5GXHd3hq8Bp4HGn2abOZvm7FwWS4v0EEh_JBsFBMtUIEynWPcdf0H6PzVz3hoEuQj6SNi25AQti9zzP57sYauCl8mVvDrB5atf1yrfoa9-YVLYVa_kjgkL-9q9Xu4kottjV5PU1ggy8lqrca--6bXgB2hr_hfUoo3QupMULf2l_gJPU-JPD4JoCru6oq-iBIFCQ6ndHibNzIcomYmmcl_nTKA3v7Q-8oNyuNqhtu6kzpo8yqOFpHt-j6ActSP0wxxHaickx7PMyb7vuvFWzsMfdpEHMhg71c0VUxpCEQ_pnXXWX8muMKBbBvgbkVrwUGCtSkfFfzBMAAHDfDrtN_95gAj0K42X3MtCo1jTZ6QJpysJovIK_9p0UVxkvkKx3HCPZiJK_edPRsu37uty0?></g></svg>