<svg xmlns="http://www.w3.org/2000/svg" xmlns:xlink="http://www.w3.org/1999/xlink" contentStyleType="text/css" data-diagram-type="DESCRIPTION" height="457px" preserveAspectRatio="none" style="width:657px;height:457px;background:#FFFFFF;" version="1.1" viewBox="0 0 657 457" width="657px" zoomAndPan="magnify"><?plantuml 1.2026.3beta6?><defs><linearGradient id="gljcg8wygu39y0" x1="0%" x2="100%" y1="50%" y2="50%"><stop offset="0%" stop-color="#A1BFD4"/><stop offset="100%" stop-color="#ADD8E6"/></linearGradient><linearGradient id="gljcg8wygu39y1" x1="0%" x2="100%" y1="50%" y2="50%"><stop offset="0%" stop-color="#FFDAB9"/><stop offset="100%" stop-color="#FFFFE0"/></linearGradient><linearGradient id="gljcg8wygu39y2" x1="0%" x2="100%" y1="50%" y2="50%"><stop offset="0%" stop-color="#90EE90"/><stop offset="100%" stop-color="#B9FDCA"/></linearGradient><linearGradient id="gljcg8wygu39y3" x1="0%" x2="100%" y1="50%" y2="50%"><stop offset="0%" stop-color="#EBF0AD"/><stop offset="100%" stop-color="#FFFFF0"/></linearGradient></defs><g><!--cluster userDevice--><g class="cluster" data-qualified-name="userDevice" data-source-line="46" id="ent0002"><polygon fill="url(#gljcg8wygu39y0)" points="16,18.9991,26,8.9991,197.83,8.9991,197.83,136.9991,187.83,146.9991,16,146.9991,16,18.9991" style="stroke:#808080;stroke-width:1;"/><line style="stroke:#808080;stroke-width:1;" x1="187.83" x2="197.83" y1="18.9991" y2="8.9991"/><line style="stroke:#808080;stroke-width:1;" x1="16" x2="187.83" y1="18.9991" y2="18.9991"/><line style="stroke:#808080;stroke-width:1;" x1="187.83" x2="187.83" y1="18.9991" y2="146.9991"/><text fill="#000000" font-family="sans-serif" font-size="14" font-weight="700" lengthAdjust="spacing" textLength="106.4287" x="49.7006" y="34.9942">User's Device</text></g><!--cluster openai--><g class="cluster" data-qualified-name="openai" data-source-line="51" id="ent0004"><path d="M329.8795,26.2056 C337.4415,10.2222 346.6388,11.5946 357.6743,22.6328 C366.7926,10.1014 375.5279,8.4147 386.1501,20.9223 C396.0938,7.1757 404.4814,8.8708 413.4068,21.9566 C422.7055,8.9326 432.0672,7.7098 441.5336,21.7824 C450.9195,10.1622 460.0657,9.8305 469.062,22.229 C476.8362,7.1684 490.4565,8.5615 497.6246,22.8195 C508.04,7.5889 518.5347,6 528.9502,22.8194 C538.5335,9.2783 548.4689,9.3189 557.053,23.8207 C564.6798,9.8403 575.7802,10.5389 583.3098,23.914 C594.8402,10.1081 609.9488,11.4806 616.71,28.9991 C618.6007,29.1713 619.2009,30.6968 617.9687,32.126 C630.6812,37.4052 630.0141,48.3485 621.1497,56.4495 C636.9854,63.3897 635.6702,75.3473 623.6986,84.7886 C637.786,94.2041 636.9446,103.8962 623.2488,112.8667 C636.0127,120.3636 636.6892,130.8011 624.3785,139.3669 C639.5133,146.0905 640.2872,155.3723 627.336,165.299 C641.8502,175.2782 639.3676,185.4907 625.6688,193.8207 C640.5988,199.4627 640.0757,210.7478 629.7507,220.2853 C642.3493,229.8819 640.9862,238.2809 627.5767,245.6482 C639.5421,255.4853 639.8343,267.6811 625.8348,276.0296 C636.7695,284.9601 634.998,295.1719 623.5579,302.1522 C635.0586,311.0063 637.4182,322.9542 621.6509,329.9368 C633.3465,337.3835 634.373,349.2056 620.24,355.2104 C632.5017,362.6735 631.6035,371.9682 621.3351,380.4103 C634.2447,395.4526 629.7935,410.3758 609.71,413.9991 C612.9656,413.6589 614.8521,415.2233 613.427,418.6355 C604.9713,433.5486 589.6057,432.5472 582.0522,417.6849 C576.0644,430.8456 565.1265,432.4874 556.0573,420.9248 C548.3753,436.3515 539.4602,437.2768 528.1997,424.4535 C518.3836,437.321 509.4954,438.9746 500.1548,423.975 C493.7784,442.0681 478.9837,440.9223 468.8653,427.7157 C457.2377,441.8481 448.1046,439.2822 440.6512,423.7461 C434.3301,434.2871 423.1091,437.0206 416.4506,424.0941 C406.1044,437.2571 393.0786,436.054 385.4782,421.0724 C377.8416,434.7086 365.4103,430.5827 359.5427,419.2359 C340.6299,432.7952 327.2746,430.6582 319.83,406.9991 C320.7522,406.4118 321.2397,406.7755 321.5364,407.7035 C309.1651,399.868 310.2613,387.8872 322.8385,381.2812 C312.0567,375.5177 308.6943,366.5233 319.3252,357.585 C304.0631,347.2036 304.6309,334.524 321.1982,326.0321 C309.6876,319.2336 306.4028,310.1274 319.2934,301.4389 C307.3189,294.4775 306.715,284.3191 318.6647,276.7485 C303.0995,269.7285 305.5988,257.0838 316.5094,248.0737 C302.9503,241.8651 299.9285,231.5779 313.0177,221.8245 C302.8287,210.8526 300.625,202.1949 316.7012,194.8035 C303.3783,185.9234 304.4187,174.7363 318.0536,167.1759 C306.7672,157.8084 304.3869,148.3164 319.3729,140.2354 C307.5898,133.2312 304.4012,121.8203 317.3616,112.9895 C307.7069,104.805 308.6697,94.1121 319.458,87.6167 C308.0859,76.8998 307.0658,64.6061 323.3037,57.4035 C310.2081,44.2842 310.1336,32.151 326.83,21.9991 C329.5643,21.9391 331.0286,23.4504 329.8795,26.2056" fill="#F5F5F5" style="stroke:#181818;stroke-width:1;"/><text fill="#000000" font-family="sans-serif" font-size="14" font-weight="700" lengthAdjust="spacing" textLength="173.1748" x="381.6826" y="39.9942">OpenAI Infrastructure</text></g><!--cluster chatgptServer--><g class="cluster" data-qualified-name="openai.chatgptServer" data-source-line="52" id="ent0005"><polygon fill="url(#gljcg8wygu39y0)" points="343.83,82.9991,353.83,72.9991,592.71,72.9991,592.71,379.9991,582.71,389.9991,343.83,389.9991,343.83,82.9991" style="stroke:#808080;stroke-width:1;"/><line style="stroke:#808080;stroke-width:1;" x1="582.71" x2="592.71" y1="82.9991" y2="72.9991"/><line style="stroke:#808080;stroke-width:1;" x1="343.83" x2="582.71" y1="82.9991" y2="82.9991"/><line style="stroke:#808080;stroke-width:1;" x1="582.71" x2="582.71" y1="82.9991" y2="389.9991"/><text fill="#000000" font-family="sans-serif" font-size="14" font-weight="700" lengthAdjust="spacing" textLength="124.5645" x="401.9878" y="98.9942">ChatGPT Server</text></g><!--cluster customGPT--><g class="cluster" data-qualified-name="openai.chatgptServer.customGPT" data-source-line="53" id="ent0006"><rect fill="#FFFFFF" height="245" rx="2.5" ry="2.5" style="stroke:#000000;stroke-width:1;" width="200.88" x="367.83" y="120.9991"/><text fill="#000000" font-family="sans-serif" font-size="14" font-weight="700" lengthAdjust="spacing" textLength="95.6484" x="420.4458" y="135.9942">Custom GPT</text></g><!--entity browser--><g class="entity" data-qualified-name="userDevice.browser" data-source-line="47" id="ent0003"><rect fill="url(#gljcg8wygu39y1)" height="46.2969" rx="2.5" ry="2.5" style="stroke:#000000;stroke-width:0.5;" width="132.832" x="40" y="76.8491"/><rect fill="url(#gljcg8wygu39y1)" height="10" style="stroke:#000000;stroke-width:0.5;" width="15" x="152.832" y="81.8491"/><rect fill="url(#gljcg8wygu39y1)" height="2" style="stroke:#000000;stroke-width:0.5;" width="4" x="150.832" y="83.8491"/><rect fill="url(#gljcg8wygu39y1)" height="2" style="stroke:#000000;stroke-width:0.5;" width="4" x="150.832" y="87.8491"/><text fill="#000000" font-family="sans-serif" font-size="14" lengthAdjust="spacing" textLength="92.832" x="55" y="109.8442">Web Browser</text></g><!--entity kb--><g class="entity" data-qualified-name="openai.chatgptServer.customGPT.kb" data-source-line="54" id="ent0007"><path d="M400.52,240.3491 C400.52,230.3491 468.27,230.3491 468.27,230.3491 C468.27,230.3491 536.02,230.3491 536.02,240.3491 L536.02,265.6459 C536.02,275.6459 468.27,275.6459 468.27,275.6459 C468.27,275.6459 400.52,275.6459 400.52,265.6459 L400.52,240.3491" fill="url(#gljcg8wygu39y2)" style="stroke:#000000;stroke-width:0.5;"/><path d="M400.52,240.3491 C400.52,250.3491 468.27,250.3491 468.27,250.3491 C468.27,250.3491 536.02,250.3491 536.02,240.3491" fill="none" style="stroke:#000000;stroke-width:0.5;"/><text fill="#000000" font-family="sans-serif" font-size="14" lengthAdjust="spacing" textLength="115.5" x="410.52" y="267.3442">Knowledge Base</text></g><!--entity instructions--><g class="entity" data-qualified-name="openai.chatgptServer.customGPT.instructions" data-source-line="55" id="ent0008"><rect fill="url(#gljcg8wygu39y3)" height="39.2969" rx="2.5" ry="2.5" style="stroke:#181818;stroke-width:0.5;" width="168.8789" x="383.83" y="156.3491"/><polygon fill="url(#gljcg8wygu39y3)" points="535.7089,161.3491,535.7089,175.3491,547.7089,175.3491,547.7089,167.3491,541.7089,161.3491,535.7089,161.3491" style="stroke:#181818;stroke-width:0.5;"/><line style="stroke:#181818;stroke-width:0.5;" x1="541.7089" x2="541.7089" y1="161.3491" y2="167.3491"/><line style="stroke:#181818;stroke-width:0.5;" x1="547.7089" x2="541.7089" y1="167.3491" y2="167.3491"/><text fill="#000000" font-family="sans-serif" font-size="14" lengthAdjust="spacing" textLength="138.8789" x="393.83" y="182.3442">System Instructions</text></g><!--entity apiSchema--><g class="entity" data-qualified-name="openai.chatgptServer.customGPT.apiSchema" data-source-line="56" id="ent0009"><rect fill="url(#gljcg8wygu39y3)" height="39.2969" rx="2.5" ry="2.5" style="stroke:#181818;stroke-width:0.5;" width="112.8857" x="411.83" y="310.3491"/><polygon fill="url(#gljcg8wygu39y3)" points="507.7157,315.3491,507.7157,329.3491,519.7157,329.3491,519.7157,321.3491,513.7157,315.3491,507.7157,315.3491" style="stroke:#181818;stroke-width:0.5;"/><line style="stroke:#181818;stroke-width:0.5;" x1="513.7157" x2="513.7157" y1="315.3491" y2="321.3491"/><line style="stroke:#181818;stroke-width:0.5;" x1="519.7157" x2="513.7157" y1="321.3491" y2="321.3491"/><text fill="#000000" font-family="sans-serif" font-size="14" lengthAdjust="spacing" textLength="82.8857" x="421.83" y="336.3442">API Schema</text></g><!--link kb to instructions--><!--link apiSchema to kb--><!--link userDevice to openai--><g class="link" data-entity-1="ent0002" data-entity-2="ent0004" data-link-type="dependency" data-source-line="66" id="lnk12"><path d="M204.1038,40.9991 C206.5111,40.9991 206.5357,40.9991 208.9932,40.9991 C213.9082,40.9991 218.9188,40.9991 224.0058,40.9991 C244.354,40.9991 265.9253,40.9991 287.4938,40.9991 C292.8859,40.9991 298.2778,40.9991 303.6504,40.9991 C306.3367,40.9991 303.0181,40.9991 305.6924,40.9991" fill="none" id="userDevice-openai" style="stroke:#181818;stroke-width:1;"/><polygon fill="#181818" points="198.1038,40.9991,207.1038,44.9991,203.1038,40.9991,207.1038,36.9991,198.1038,40.9991" style="stroke:#181818;stroke-width:1;"/><polygon fill="#181818" points="311.6924,40.9991,302.6924,36.9991,306.6924,40.9991,302.6924,44.9991,311.6924,40.9991" style="stroke:#181818;stroke-width:1;"/><text fill="#000000" font-family="sans-serif" font-size="13" font-weight="700" lengthAdjust="spacing" textLength="47.5059" x="221.36" y="54.066">HTTPS</text></g><?plantuml-src ZLHTYzim47pNhrXy3uP082bzQIc5s6ckeIq9-Cfnb3x8zjeMjYKZoKb3S_-z-iWbpfqBCHYyykneTdUa49RODUBG8jUmPBIKj8L2I8WtoLFoOmDnhxHeuNxxG1eiD6W1afMLXfn9p3GJd5GiHr0Q9Gfzw90GLJFUKSkKDQBFuIy1Y6XMbrBqF8z5O_WVAwOnQKMDv7cOGQLc1StqQDBTbsWrMooFR2VauJgF2oF2vGYPe_HuKyrXZ6OnZrRBzyVljf2ewLz9oAccALLlwTB648tmEPvxYSYFTz67rJ9UN1Dcekq4jns-bR53cbLTNnHUunCsZTXRqW4huqhBter0tLhvtdRzMfoT8kLbStkv8oGDusXd3qBgIhmQYy8EvhCP08I0VxIae3gQCLv2YdflkkPHGqsKrpRhtNn6I0YQQIFluiGHprhOJuKIb34ZSMO8R1mg0zwn30EW2dgpuaDNx6KkmIEc44cnDm27JFsthJA4JOTyiOOrBoJrFUyb4k_jOFIdun3c3sLk9oyehgYsyXEKkzC-cLagE-rN71G64makDNkq2os5HzhdxDRW6nVx1lCIpSIKbr2dPzpvO0N9mHpMrYY--CU1XuOQILjirv1a5RRKeMd7V4JEs3g5wIzp6-J8VxjBOleVpfVKD_2JtcTYNslt46B1EPu81lFxD9r-VkdmHvXClZuyR1EREvdy0m00?></g></svg>