<?xml version="1.0" encoding="UTF-8" standalone="no"?>
<!DOCTYPE svg PUBLIC "-//W3C//DTD SVG 1.1//EN"
 "http://www.w3.org/Graphics/SVG/1.1/DTD/svg11.dtd">
<!-- Generated by graphviz version 2.43.0 (0)
 -->
<!-- Title: %3 Pages: 1 -->
<svg width="324pt" height="140pt"
 viewBox="36.00 0.00 288.00 140.00" xmlns="http://www.w3.org/2000/svg" xmlns:xlink="http://www.w3.org/1999/xlink">
<g id="graph0" class="graph" transform="scale(1 1) rotate(0) translate(40 136)">
<title>%3</title>
<polygon fill="white" stroke="transparent" points="-4,4 -4,-136 248,-136 248,4 -4,4"/>
<!-- Inventory -->
<g id="node1" class="node">
<title>Inventory</title>
<polygon fill="none" stroke="blue" points="157,-36 100,-36 100,0 157,0 157,-36"/>
<text text-anchor="middle" x="128.5" y="-15.5" font-family="arial" font-size="10.00" fill="blue">Inventory</text>
</g>
<!-- Production_Rate -->
<g id="node2" class="node">
<title>Production_Rate</title>
<ellipse fill="none" stroke="blue" cx="57" cy="-18" rx="7" ry="7"/>
<text text-anchor="middle" x="57" y="-3.5" font-family="arial" font-size="10.00" fill="blue">Production_Rate</text>
</g>
<!-- Inventory&#45;&gt;Production_Rate -->
<g id="edge5" class="edge">
<title>Inventory:nw&#45;&gt;Production_Rate</title>
<path fill="none" stroke="red" d="M100,-36C91.84,-44.16 79.39,-37.23 70.16,-29.73"/>
<polygon fill="red" stroke="red" points="72.3,-26.95 62.54,-22.83 67.61,-32.14 72.3,-26.95"/>
</g>
<!-- Demand_Rate -->
<g id="node3" class="node">
<title>Demand_Rate</title>
<ellipse fill="none" stroke="blue" cx="200" cy="-18" rx="7" ry="7"/>
<text text-anchor="middle" x="200" y="-3.5" font-family="arial" font-size="10.00" fill="blue">Demand_Rate</text>
</g>
<!-- Inventory&#45;&gt;Demand_Rate -->
<g id="edge3" class="edge">
<title>Inventory&#45;&gt;Demand_Rate</title>
<path fill="none" stroke="blue" d="M157.37,-17C170.51,-17 185.02,-17 192.97,-17"/>
<path fill="none" stroke="blue" d="M157.37,-19C170.51,-19 185.02,-19 192.97,-19"/>
</g>
<!-- Production_Rate&#45;&gt;Inventory -->
<g id="edge1" class="edge">
<title>Production_Rate&#45;&gt;Inventory</title>
<path fill="none" stroke="blue" d="M64.41,-17C70.4,-17 79.86,-17 89.64,-17"/>
<path fill="none" stroke="blue" d="M64.41,-19C70.4,-19 79.86,-19 89.64,-19"/>
<polygon fill="none" stroke="blue" points="89.83,-21.5 99.83,-18 89.83,-14.5 89.83,-21.5"/>
</g>
<!-- Demand_Rate_sink -->
<g id="node8" class="node">
<title>Demand_Rate_sink</title>
<ellipse fill="none" stroke="transparent" cx="243.5" cy="-18" rx="0.5" ry="18"/>
<text text-anchor="middle" x="243.5" y="-14.3" font-family="arial" font-size="14.00" fill="blue">✽</text>
</g>
<!-- Demand_Rate&#45;&gt;Demand_Rate_sink -->
<g id="edge4" class="edge">
<title>Demand_Rate&#45;&gt;Demand_Rate_sink</title>
<path fill="none" stroke="blue" d="M207.2,-17C213.92,-17 224.75,-17 232.74,-17"/>
<path fill="none" stroke="blue" d="M207.2,-19C213.92,-19 224.75,-19 232.74,-19"/>
<polygon fill="none" stroke="blue" points="232.93,-21.5 242.93,-18 232.93,-14.5 232.93,-21.5"/>
</g>
<!-- Target_Inventory -->
<g id="node4" class="node">
<title>Target_Inventory</title>
<ellipse fill="none" stroke="blue" cx="7" cy="-93" rx="7" ry="7"/>
<text text-anchor="middle" x="7" y="-78.5" font-family="arial" font-size="10.00" fill="blue">Target_Inventory</text>
</g>
<!-- Target_Inventory&#45;&gt;Production_Rate -->
<g id="edge6" class="edge">
<title>Target_Inventory&#45;&gt;Production_Rate</title>
<path fill="none" stroke="red" d="M11.77,-87.11C19.23,-75.45 36.11,-49.08 46.72,-32.5"/>
<polygon fill="red" stroke="red" points="49.94,-33.96 52.38,-23.65 44.04,-30.19 49.94,-33.96"/>
</g>
<!-- Adj_Time -->
<g id="node5" class="node">
<title>Adj_Time</title>
<ellipse fill="none" stroke="blue" cx="7" cy="-61" rx="7" ry="7"/>
<text text-anchor="middle" x="7" y="-46.5" font-family="arial" font-size="10.00" fill="blue">Adj_Time</text>
</g>
<!-- Adj_Time&#45;&gt;Production_Rate -->
<g id="edge7" class="edge">
<title>Adj_Time&#45;&gt;Production_Rate</title>
<path fill="none" stroke="red" d="M12.78,-56.72C19.89,-50.34 33.52,-38.14 43.57,-29.13"/>
<polygon fill="red" stroke="red" points="46.13,-31.54 51.24,-22.26 41.46,-26.33 46.13,-31.54"/>
</g>
<!-- Demand -->
<g id="node6" class="node">
<title>Demand</title>
<ellipse fill="none" stroke="blue" cx="7" cy="-125" rx="7" ry="7"/>
<text text-anchor="middle" x="7" y="-110.5" font-family="arial" font-size="10.00" fill="blue">Demand</text>
</g>
<!-- Demand&#45;&gt;Demand_Rate -->
<g id="edge8" class="edge">
<title>Demand&#45;&gt;Demand_Rate</title>
<path fill="none" stroke="red" d="M13.5,-122.25C33.21,-112.33 102.09,-77.32 157,-45 166.67,-39.31 177.29,-32.47 185.43,-27.1"/>
<polygon fill="red" stroke="red" points="187.53,-29.92 193.91,-21.46 183.65,-24.09 187.53,-29.92"/>
</g>
<!-- Production_Rate_source -->
<g id="node7" class="node">
<title>Production_Rate_source</title>
<ellipse fill="none" stroke="transparent" cx="7" cy="-18" rx="0.5" ry="18"/>
<text text-anchor="middle" x="7" y="-14.3" font-family="arial" font-size="14.00" fill="blue">✽</text>
</g>
<!-- Production_Rate_source&#45;&gt;Production_Rate -->
<g id="edge2" class="edge">
<title>Production_Rate_source&#45;&gt;Production_Rate</title>
<path fill="none" stroke="blue" d="M8.14,-17C10.29,-17 37.2,-17 49.7,-17"/>
<path fill="none" stroke="blue" d="M8.14,-19C10.29,-19 37.2,-19 49.7,-19"/>
</g>
</g>
</svg>
