<?xml version="1.0" encoding="UTF-8" standalone="no"?>
<!DOCTYPE svg PUBLIC "-//W3C//DTD SVG 1.1//EN"
 "http://www.w3.org/Graphics/SVG/1.1/DTD/svg11.dtd">
<!-- Generated by graphviz version 2.43.0 (0)
 -->
<!-- Title: G Pages: 1 -->
<svg width="386pt" height="44pt"
 viewBox="0.00 0.00 386.00 44.00" xmlns="http://www.w3.org/2000/svg" xmlns:xlink="http://www.w3.org/1999/xlink">
<g id="graph0" class="graph" transform="scale(1 1) rotate(0) translate(4 40)">
<title>G</title>
<polygon fill="white" stroke="transparent" points="-4,4 -4,-40 382,-40 382,4 -4,4"/>
<!-- Source -->
<g id="node1" class="node">
<title>Source</title>
<text text-anchor="middle" x="27.5" y="-21.2" font-family="arial" font-size="11.00">❚❚❱</text>
<text text-anchor="middle" x="27.5" y="-9.2" font-family="arial" font-size="11.00">Source</text>
</g>
<!-- Delay -->
<g id="node2" class="node">
<title>Delay</title>
<text text-anchor="middle" x="132" y="-21.2" font-family="arial" font-size="11.00">◷</text>
<text text-anchor="middle" x="132" y="-9.2" font-family="arial" font-size="11.00">Delay</text>
</g>
<!-- Source&#45;&gt;Delay -->
<g id="edge1" class="edge">
<title>Source&#45;&gt;Delay</title>
<path fill="none" stroke="black" d="M55.16,-18C67.24,-18 81.7,-18 94.74,-18"/>
<polygon fill="black" stroke="black" points="94.83,-21.5 104.83,-18 94.83,-14.5 94.83,-21.5"/>
</g>
<!-- Server -->
<g id="node3" class="node">
<title>Server</title>
<text text-anchor="middle" x="236.5" y="-21.2" font-family="arial" font-size="11.00">❚❚▣</text>
<text text-anchor="middle" x="236.5" y="-9.2" font-family="arial" font-size="11.00">Server</text>
</g>
<!-- Delay&#45;&gt;Server -->
<g id="edge2" class="edge">
<title>Delay&#45;&gt;Server</title>
<path fill="none" stroke="black" d="M159.13,-18C171.11,-18 185.53,-18 198.59,-18"/>
<polygon fill="black" stroke="black" points="198.7,-21.5 208.7,-18 198.7,-14.5 198.7,-21.5"/>
</g>
<!-- Terminate -->
<g id="node4" class="node">
<title>Terminate</title>
<text text-anchor="middle" x="346" y="-21.2" font-family="arial" font-size="11.00">❱❚❚</text>
<text text-anchor="middle" x="346" y="-9.2" font-family="arial" font-size="11.00">Terminate</text>
</g>
<!-- Server&#45;&gt;Terminate -->
<g id="edge3" class="edge">
<title>Server&#45;&gt;Terminate</title>
<path fill="none" stroke="black" d="M264.07,-18C275.95,-18 290.22,-18 303.45,-18"/>
<polygon fill="black" stroke="black" points="303.77,-21.5 313.77,-18 303.77,-14.5 303.77,-21.5"/>
</g>
</g>
</svg>
