<?xml version="1.0" encoding="UTF-8" standalone="no"?>
<!DOCTYPE svg PUBLIC "-//W3C//DTD SVG 1.1//EN"
 "http://www.w3.org/Graphics/SVG/1.1/DTD/svg11.dtd">
<!-- Generated by graphviz version 2.38.0 (20140413.2041)
 -->
<!-- Title: G Pages: 1 -->
<svg width="1112pt" height="906pt"
 viewBox="0.00 0.00 1112.00 906.00" xmlns="http://www.w3.org/2000/svg" xmlns:xlink="http://www.w3.org/1999/xlink">
<g id="graph0" class="graph" transform="scale(1 1) rotate(0) translate(4 902)">
<title>G</title>
<polygon fill="white" stroke="none" points="-4,4 -4,-902 1108,-902 1108,4 -4,4"/>
<!-- AAV 523519 and Crew Loss -->
<g id="node1" class="node"><title>AAV 523519 and Crew Loss</title>
<polygon fill="none" stroke="black" points="692,-867.5 692,-893.5 773,-893.5 773,-867.5 692,-867.5"/>
<text text-anchor="start" x="693" y="-883.7" font-family="Times New Roman,serif" font-size="11.00">AAV 523519 and</text>
<text text-anchor="start" x="708" y="-871.7" font-family="Times New Roman,serif" font-size="11.00">Crew Loss</text>
<image xlink:href="AND_node.svg" width="50px" height="33px" preserveAspectRatio="xMinYMin meet" x="707.5" y="-867.5"/>
<image xlink:href="OR_node_bottom.svg" width="50px" height="36px" preserveAspectRatio="xMinYMin meet" x="707.5" y="-834.5"/>
</g>
<!-- AAV Sinking -->
<g id="node2" class="node"><title>AAV Sinking</title>
<polygon fill="none" stroke="black" points="585,-595.5 585,-609.5 647,-609.5 647,-595.5 585,-595.5"/>
<text text-anchor="start" x="586" y="-599.7" font-family="Times New Roman,serif" font-size="11.00">AAV Sinking</text>
<image xlink:href="OR_node.svg" width="50px" height="39px" preserveAspectRatio="xMinYMin meet" x="591" y="-595.5"/>
<image xlink:href="OR_node_bottom.svg" width="50px" height="36px" preserveAspectRatio="xMinYMin meet" x="591" y="-556.5"/>
</g>
<!-- AAV 523519 and Crew Loss&#45;&gt;AAV Sinking -->
<g id="edge1" class="edge"><title>AAV 523519 and Crew Loss:and:s&#45;&gt;AAV Sinking:top:n</title>
<path fill="none" stroke="black" stroke-width="2" d="M733,-834.5C733,-834.5 619.628,-616.476 616.085,-609.663"/>
<polygon fill="black" stroke="black" stroke-width="2" points="616,-609.5 616,-609.5 616,-609.5 616,-609.5"/>
</g>
<!-- Personnel Deaths -->
<g id="node3" class="node"><title>Personnel Deaths</title>
<polygon fill="none" stroke="black" points="758,-728.5 758,-754.5 804,-754.5 804,-728.5 758,-728.5"/>
<text text-anchor="start" x="759" y="-744.7" font-family="Times New Roman,serif" font-size="11.00">Personnel</text>
<text text-anchor="start" x="765" y="-732.7" font-family="Times New Roman,serif" font-size="11.00">Deaths</text>
<image xlink:href="OR_node.svg" width="46px" height="39px" preserveAspectRatio="xMinYMin meet" x="758" y="-728.5"/>
<image xlink:href="OR_node_bottom.svg" width="46px" height="36px" preserveAspectRatio="xMinYMin meet" x="758" y="-689.5"/>
</g>
<!-- AAV 523519 and Crew Loss&#45;&gt;Personnel Deaths -->
<g id="edge2" class="edge"><title>AAV 523519 and Crew Loss:and:s&#45;&gt;Personnel Deaths:top:n</title>
<path fill="none" stroke="black" stroke-width="2" d="M733,-833.5C733,-833.5 779.512,-757.918 780.965,-755.557"/>
<polygon fill="black" stroke="black" stroke-width="2" points="781,-755.5 781,-755.5 781,-755.5 781,-755.5"/>
</g>
<!-- Water Intrusion -->
<g id="node4" class="node"><title>Water Intrusion</title>
<polygon fill="none" stroke="black" points="285,-456.5 285,-470.5 357,-470.5 357,-456.5 285,-456.5"/>
<text text-anchor="start" x="286" y="-460.7" font-family="Times New Roman,serif" font-size="11.00">Water Intrusion</text>
<image xlink:href="OR_node.svg" width="50px" height="39px" preserveAspectRatio="xMinYMin meet" x="296" y="-456.5"/>
<image xlink:href="OR_node_bottom.svg" width="50px" height="36px" preserveAspectRatio="xMinYMin meet" x="296" y="-417.5"/>
</g>
<!-- AAV Sinking&#45;&gt;Water Intrusion -->
<g id="edge3" class="edge"><title>AAV Sinking:or:s&#45;&gt;Water Intrusion:top:n</title>
<path fill="none" stroke="black" stroke-width="2" d="M616,-555.5C616,-555.5 325.591,-472.807 321.054,-471.515"/>
<polygon fill="black" stroke="black" stroke-width="2" points="321,-471.5 321,-471.5 321,-471.5 321,-471.5"/>
</g>
<!-- Failure to Remove Water -->
<g id="node5" class="node"><title>Failure to Remove Water</title>
<polygon fill="none" stroke="black" points="530,-450.5 530,-476.5 600,-476.5 600,-450.5 530,-450.5"/>
<text text-anchor="start" x="544" y="-466.7" font-family="Times New Roman,serif" font-size="11.00">Failure to</text>
<text text-anchor="start" x="531" y="-454.7" font-family="Times New Roman,serif" font-size="11.00">Remove Water</text>
<image xlink:href="OR_node.svg" width="50px" height="39px" preserveAspectRatio="xMinYMin meet" x="540" y="-450.5"/>
<image xlink:href="OR_node_bottom.svg" width="50px" height="36px" preserveAspectRatio="xMinYMin meet" x="540" y="-411.5"/>
</g>
<!-- AAV Sinking&#45;&gt;Failure to Remove Water -->
<g id="edge4" class="edge"><title>AAV Sinking:or:s&#45;&gt;Failure to Remove Water:top:n</title>
<path fill="none" stroke="black" stroke-width="2" d="M616,-555.5C616,-555.5 566.581,-479.918 565.037,-477.557"/>
<polygon fill="black" stroke="black" stroke-width="2" points="565,-477.5 565,-477.5 565,-477.5 565,-477.5"/>
</g>
<!-- Splash Check Failed -->
<g id="node6" class="node"><title>Splash Check Failed</title>
<polygon fill="none" stroke="black" points="635,-413.5 635,-439.5 698,-439.5 698,-413.5 635,-413.5"/>
<text text-anchor="start" x="636" y="-429.7" font-family="Times New Roman,serif" font-size="11.00">Splash Check</text>
<text text-anchor="start" x="653" y="-417.7" font-family="Times New Roman,serif" font-size="11.00">Failed</text>
</g>
<!-- AAV Sinking&#45;&gt;Splash Check Failed -->
<g id="edge5" class="edge"><title>AAV Sinking:or:s&#45;&gt;Splash Check Failed:top:n</title>
<path fill="none" stroke="black" stroke-width="2" d="M616,-555.5C616,-555.5 665.419,-444.066 666.963,-440.583"/>
<polygon fill="black" stroke="black" stroke-width="2" points="667,-440.5 667,-440.5 667,-440.5 667,-440.5"/>
</g>
<!-- SOPs not followed -->
<g id="node13" class="node"><title>SOPs not followed</title>
<polygon fill="none" stroke="black" points="688,-305.5 688,-331.5 733,-331.5 733,-305.5 688,-305.5"/>
<text text-anchor="start" x="689" y="-321.7" font-family="Times New Roman,serif" font-size="11.00">SOPs not</text>
<text text-anchor="start" x="691.5" y="-309.7" font-family="Times New Roman,serif" font-size="11.00">followed</text>
<image xlink:href="OR_node.svg" width="45px" height="39px" preserveAspectRatio="xMinYMin meet" x="688" y="-305.5"/>
<image xlink:href="OR_node_bottom.svg" width="45px" height="36px" preserveAspectRatio="xMinYMin meet" x="688" y="-266.5"/>
</g>
<!-- Personnel Deaths&#45;&gt;SOPs not followed -->
<g id="edge12" class="edge"><title>Personnel Deaths:or:s&#45;&gt;SOPs not followed:top:n</title>
<path fill="none" stroke="black" stroke-width="2" d="M781,-689.5C781,-689.5 712.089,-337.072 711.013,-331.565"/>
<polygon fill="black" stroke="black" stroke-width="2" points="711,-331.5 711,-331.5 711,-331.5 711,-331.5"/>
</g>
<!-- Training Insufficient -->
<g id="node14" class="node"><title>Training Insufficient</title>
<polygon fill="none" stroke="black" points="826,-305.5 826,-331.5 878,-331.5 878,-305.5 826,-305.5"/>
<text text-anchor="start" x="833.5" y="-321.7" font-family="Times New Roman,serif" font-size="11.00">Training</text>
<text text-anchor="start" x="827" y="-309.7" font-family="Times New Roman,serif" font-size="11.00">Insufficient</text>
<image xlink:href="OR_node.svg" width="50px" height="39px" preserveAspectRatio="xMinYMin meet" x="827" y="-305.5"/>
<image xlink:href="OR_node_bottom.svg" width="50px" height="36px" preserveAspectRatio="xMinYMin meet" x="827" y="-266.5"/>
</g>
<!-- Personnel Deaths&#45;&gt;Training Insufficient -->
<g id="edge13" class="edge"><title>Personnel Deaths:or:s&#45;&gt;Training Insufficient:top:n</title>
<path fill="none" stroke="black" stroke-width="2" d="M781,-689.5C781,-689.5 850.895,-337.072 851.987,-331.565"/>
<polygon fill="black" stroke="black" stroke-width="2" points="852,-331.5 852,-331.5 852,-331.5 852,-331.5"/>
</g>
<!-- PPE Insufficient -->
<g id="node15" class="node"><title>PPE Insufficient</title>
<polygon fill="none" stroke="black" points="916,-450.5 916,-476.5 968,-476.5 968,-450.5 916,-450.5"/>
<text text-anchor="start" x="931.5" y="-466.7" font-family="Times New Roman,serif" font-size="11.00">PPE</text>
<text text-anchor="start" x="917" y="-454.7" font-family="Times New Roman,serif" font-size="11.00">Insufficient</text>
<image xlink:href="OR_node.svg" width="50px" height="39px" preserveAspectRatio="xMinYMin meet" x="917" y="-450.5"/>
<image xlink:href="OR_node_bottom.svg" width="50px" height="36px" preserveAspectRatio="xMinYMin meet" x="917" y="-411.5"/>
</g>
<!-- Personnel Deaths&#45;&gt;PPE Insufficient -->
<g id="edge14" class="edge"><title>Personnel Deaths:or:s&#45;&gt;PPE Insufficient:top:n</title>
<path fill="none" stroke="black" stroke-width="2" d="M781,-689.5C781,-689.5 937.008,-483.104 941.883,-476.654"/>
<polygon fill="black" stroke="black" stroke-width="2" points="942,-476.5 942,-476.5 942,-476.5 942,-476.5"/>
</g>
<!-- Intake Plenum -->
<g id="node7" class="node"><title>Intake Plenum</title>
<polygon fill="none" stroke="black" points="85,-274.5 85,-288.5 151,-288.5 151,-274.5 85,-274.5"/>
<text text-anchor="start" x="86" y="-278.7" font-family="Times New Roman,serif" font-size="11.00">Intake Plenum</text>
</g>
<!-- Water Intrusion&#45;&gt;Intake Plenum -->
<g id="edge6" class="edge"><title>Water Intrusion:or:s&#45;&gt;Intake Plenum:top:n</title>
<path fill="none" stroke="black" stroke-width="2" d="M321,-416.5C321,-416.5 124.294,-293.438 118.147,-289.592"/>
<polygon fill="black" stroke="black" stroke-width="2" points="118,-289.5 118,-289.5 118,-289.5 118,-289.5"/>
</g>
<!-- Exhaust Plenum -->
<g id="node8" class="node"><title>Exhaust Plenum</title>
<polygon fill="none" stroke="black" points="185,-274.5 185,-288.5 259,-288.5 259,-274.5 185,-274.5"/>
<text text-anchor="start" x="186" y="-278.7" font-family="Times New Roman,serif" font-size="11.00">Exhaust Plenum</text>
</g>
<!-- Water Intrusion&#45;&gt;Exhaust Plenum -->
<g id="edge7" class="edge"><title>Water Intrusion:or:s&#45;&gt;Exhaust Plenum:top:n</title>
<path fill="none" stroke="black" stroke-width="2" d="M321,-416.5C321,-416.5 225.07,-293.438 222.072,-289.592"/>
<polygon fill="black" stroke="black" stroke-width="2" points="222,-289.5 222,-289.5 222,-289.5 222,-289.5"/>
</g>
<!-- Headlight Connectors -->
<g id="node9" class="node"><title>Headlight Connectors</title>
<polygon fill="none" stroke="black" points="294,-268.5 294,-294.5 347,-294.5 347,-268.5 294,-268.5"/>
<text text-anchor="start" x="299" y="-284.7" font-family="Times New Roman,serif" font-size="11.00">Headlight</text>
<text text-anchor="start" x="295" y="-272.7" font-family="Times New Roman,serif" font-size="11.00">Connectors</text>
</g>
<!-- Water Intrusion&#45;&gt;Headlight Connectors -->
<g id="edge8" class="edge"><title>Water Intrusion:or:s&#45;&gt;Headlight Connectors:top:n</title>
<path fill="none" stroke="black" stroke-width="2" d="M321,-416.5C321,-416.5 321,-299.252 321,-295.588"/>
<polygon fill="black" stroke="black" stroke-width="2" points="321,-295.5 321,-295.5 321,-295.5 321,-295.5"/>
</g>
<!-- Egress Door -->
<g id="node10" class="node"><title>Egress Door</title>
<polygon fill="none" stroke="black" points="381,-274.5 381,-288.5 439,-288.5 439,-274.5 381,-274.5"/>
<text text-anchor="start" x="382" y="-278.7" font-family="Times New Roman,serif" font-size="11.00">Egress Door</text>
</g>
<!-- Water Intrusion&#45;&gt;Egress Door -->
<g id="edge9" class="edge"><title>Water Intrusion:or:s&#45;&gt;Egress Door:top:n</title>
<path fill="none" stroke="black" stroke-width="2" d="M321,-416.5C321,-416.5 407.24,-293.438 409.935,-289.592"/>
<polygon fill="black" stroke="black" stroke-width="2" points="410,-289.5 410,-289.5 410,-289.5 410,-289.5"/>
</g>
<!-- Failure of Pump 1 -->
<g id="node11" class="node"><title>Failure of Pump 1</title>
<polygon fill="none" stroke="black" points="474,-268.5 474,-294.5 547,-294.5 547,-268.5 474,-268.5"/>
<text text-anchor="start" x="475" y="-284.7" font-family="Times New Roman,serif" font-size="11.00">Failure of Pump</text>
<text text-anchor="start" x="507.5" y="-272.7" font-family="Times New Roman,serif" font-size="11.00">1</text>
</g>
<!-- Failure to Remove Water&#45;&gt;Failure of Pump 1 -->
<g id="edge10" class="edge"><title>Failure to Remove Water:or:s&#45;&gt;Failure of Pump 1:top:n</title>
<path fill="none" stroke="black" stroke-width="2" d="M565,-410.5C565,-410.5 512.674,-299.066 511.039,-295.583"/>
<polygon fill="black" stroke="black" stroke-width="2" points="511,-295.5 511,-295.5 511,-295.5 511,-295.5"/>
</g>
<!-- Failure of Pump 2 -->
<g id="node12" class="node"><title>Failure of Pump 2</title>
<polygon fill="none" stroke="black" points="581,-268.5 581,-294.5 654,-294.5 654,-268.5 581,-268.5"/>
<text text-anchor="start" x="582" y="-284.7" font-family="Times New Roman,serif" font-size="11.00">Failure of Pump</text>
<text text-anchor="start" x="614.5" y="-272.7" font-family="Times New Roman,serif" font-size="11.00">2</text>
</g>
<!-- Failure to Remove Water&#45;&gt;Failure of Pump 2 -->
<g id="edge11" class="edge"><title>Failure to Remove Water:or:s&#45;&gt;Failure of Pump 2:top:n</title>
<path fill="none" stroke="black" stroke-width="2" d="M565,-410.5C565,-410.5 616.357,-299.066 617.962,-295.583"/>
<polygon fill="black" stroke="black" stroke-width="2" points="618,-295.5 618,-295.5 618,-295.5 618,-295.5"/>
</g>
<!-- Communication Failure -->
<g id="node16" class="node"><title>Communication Failure</title>
<polygon fill="none" stroke="black" points="151,-157.5 151,-183.5 222,-183.5 222,-157.5 151,-157.5"/>
<text text-anchor="start" x="152" y="-173.7" font-family="Times New Roman,serif" font-size="11.00">Communication</text>
<text text-anchor="start" x="171" y="-161.7" font-family="Times New Roman,serif" font-size="11.00">Failure</text>
<image xlink:href="AND_node.svg" width="50px" height="33px" preserveAspectRatio="xMinYMin meet" x="161.5" y="-157.5"/>
<image xlink:href="OR_node_bottom.svg" width="50px" height="36px" preserveAspectRatio="xMinYMin meet" x="161.5" y="-124.5"/>
</g>
<!-- SOPs not followed&#45;&gt;Communication Failure -->
<g id="edge15" class="edge"><title>SOPs not followed:or:s&#45;&gt;Communication Failure:top:n</title>
<path fill="none" stroke="black" stroke-width="2" d="M711,-265.5C711,-265.5 195.156,-185.761 187.095,-184.515"/>
<polygon fill="black" stroke="black" stroke-width="2" points="187,-184.5 187,-184.5 187,-184.5 187,-184.5"/>
</g>
<!-- Safety Boats Not Present -->
<g id="node17" class="node"><title>Safety Boats Not Present</title>
<polygon fill="none" stroke="black" points="410,-160.5 410,-186.5 470,-186.5 470,-160.5 410,-160.5"/>
<text text-anchor="start" x="411" y="-176.7" font-family="Times New Roman,serif" font-size="11.00">Safety Boats</text>
<text text-anchor="start" x="413" y="-164.7" font-family="Times New Roman,serif" font-size="11.00">Not Present</text>
<image xlink:href="OR_node.svg" width="50px" height="39px" preserveAspectRatio="xMinYMin meet" x="415" y="-160.5"/>
<image xlink:href="OR_node_bottom.svg" width="50px" height="36px" preserveAspectRatio="xMinYMin meet" x="415" y="-121.5"/>
</g>
<!-- SOPs not followed&#45;&gt;Safety Boats Not Present -->
<g id="edge16" class="edge"><title>SOPs not followed:or:s&#45;&gt;Safety Boats Not Present:top:n</title>
<path fill="none" stroke="black" stroke-width="2" d="M711,-265.5C711,-265.5 444.218,-188.714 440.049,-187.514"/>
<polygon fill="black" stroke="black" stroke-width="2" points="440,-187.5 440,-187.5 440,-187.5 440,-187.5"/>
</g>
<!-- Personnel Not Evacuated -->
<g id="node18" class="node"><title>Personnel Not Evacuated</title>
<polygon fill="none" stroke="black" points="628,-157.5 628,-183.5 694,-183.5 694,-157.5 628,-157.5"/>
<text text-anchor="start" x="629" y="-173.7" font-family="Times New Roman,serif" font-size="11.00">Personnel Not</text>
<text text-anchor="start" x="637.5" y="-161.7" font-family="Times New Roman,serif" font-size="11.00">Evacuated</text>
<image xlink:href="AND_node.svg" width="50px" height="33px" preserveAspectRatio="xMinYMin meet" x="636" y="-157.5"/>
<image xlink:href="OR_node_bottom.svg" width="50px" height="36px" preserveAspectRatio="xMinYMin meet" x="636" y="-124.5"/>
</g>
<!-- SOPs not followed&#45;&gt;Personnel Not Evacuated -->
<g id="edge17" class="edge"><title>SOPs not followed:or:s&#45;&gt;Personnel Not Evacuated:top:n</title>
<path fill="none" stroke="black" stroke-width="2" d="M711,-265.5C711,-265.5 662.55,-187.011 661.036,-184.559"/>
<polygon fill="black" stroke="black" stroke-width="2" points="661,-184.5 661,-184.5 661,-184.5 661,-184.5"/>
</g>
<!-- Exits Non Functional -->
<g id="node19" class="node"><title>Exits Non Functional</title>
<polygon fill="none" stroke="black" points="736,-160.5 736,-186.5 784,-186.5 784,-160.5 736,-160.5"/>
<text text-anchor="start" x="738" y="-176.7" font-family="Times New Roman,serif" font-size="11.00">Exits Non</text>
<text text-anchor="start" x="737" y="-164.7" font-family="Times New Roman,serif" font-size="11.00">Functional</text>
<image xlink:href="OR_node.svg" width="48px" height="39px" preserveAspectRatio="xMinYMin meet" x="736" y="-160.5"/>
<image xlink:href="OR_node_bottom.svg" width="48px" height="36px" preserveAspectRatio="xMinYMin meet" x="736" y="-121.5"/>
</g>
<!-- SOPs not followed&#45;&gt;Exits Non Functional -->
<g id="edge18" class="edge"><title>SOPs not followed:or:s&#45;&gt;Exits Non Functional:top:n</title>
<path fill="none" stroke="black" stroke-width="2" d="M711,-265.5C711,-265.5 758.481,-189.918 759.964,-187.557"/>
<polygon fill="black" stroke="black" stroke-width="2" points="760,-187.5 760,-187.5 760,-187.5 760,-187.5"/>
</g>
<!-- Swim Qual not Passed -->
<g id="node30" class="node"><title>Swim Qual not Passed</title>
<polygon fill="none" stroke="black" points="818,-123.5 818,-149.5 886,-149.5 886,-123.5 818,-123.5"/>
<text text-anchor="start" x="819" y="-139.7" font-family="Times New Roman,serif" font-size="11.00">Swim Qual not</text>
<text text-anchor="start" x="836" y="-127.7" font-family="Times New Roman,serif" font-size="11.00">Passed</text>
</g>
<!-- Training Insufficient&#45;&gt;Swim Qual not Passed -->
<g id="edge29" class="edge"><title>Training Insufficient:or:s&#45;&gt;Swim Qual not Passed:top:n</title>
<path fill="none" stroke="black" stroke-width="2" d="M852,-265.5C852,-265.5 852,-154.066 852,-150.583"/>
<polygon fill="black" stroke="black" stroke-width="2" points="852,-150.5 852,-150.5 852,-150.5 852,-150.5"/>
</g>
<!-- Surface Egress Training not Complete -->
<g id="node31" class="node"><title>Surface Egress Training not Complete</title>
<polygon fill="none" stroke="black" points="920,-117.5 920,-155.5 990,-155.5 990,-117.5 920,-117.5"/>
<text text-anchor="start" x="921" y="-145.7" font-family="Times New Roman,serif" font-size="11.00">Surface Egress</text>
<text text-anchor="start" x="928.5" y="-133.7" font-family="Times New Roman,serif" font-size="11.00">Training not</text>
<text text-anchor="start" x="933.5" y="-121.7" font-family="Times New Roman,serif" font-size="11.00">Complete</text>
</g>
<!-- Training Insufficient&#45;&gt;Surface Egress Training not Complete -->
<g id="edge30" class="edge"><title>Training Insufficient:or:s&#45;&gt;Surface Egress Training not Complete:top:n</title>
<path fill="none" stroke="black" stroke-width="2" d="M852,-265.5C852,-265.5 951.806,-159.88 954.925,-156.579"/>
<polygon fill="black" stroke="black" stroke-width="2" points="955,-156.5 955,-156.5 955,-156.5 955,-156.5"/>
</g>
<!-- Underwater Egress Training not complete -->
<g id="node32" class="node"><title>Underwater Egress Training not complete</title>
<polygon fill="none" stroke="black" points="1024,-117.5 1024,-155.5 1096,-155.5 1096,-117.5 1024,-117.5"/>
<text text-anchor="start" x="1033" y="-145.7" font-family="Times New Roman,serif" font-size="11.00">Underwater</text>
<text text-anchor="start" x="1025" y="-133.7" font-family="Times New Roman,serif" font-size="11.00">Egress Training</text>
<text text-anchor="start" x="1031.5" y="-121.7" font-family="Times New Roman,serif" font-size="11.00">not complete</text>
</g>
<!-- Training Insufficient&#45;&gt;Underwater Egress Training not complete -->
<g id="edge31" class="edge"><title>Training Insufficient:or:s&#45;&gt;Underwater Egress Training not complete:top:n</title>
<path fill="none" stroke="black" stroke-width="2" d="M852,-265.5C852,-265.5 1053.55,-159.88 1059.85,-156.579"/>
<polygon fill="black" stroke="black" stroke-width="2" points="1060,-156.5 1060,-156.5 1060,-156.5 1060,-156.5"/>
</g>
<!-- Heavy Gear Donned -->
<g id="node33" class="node"><title>Heavy Gear Donned</title>
<polygon fill="none" stroke="black" points="913,-268.5 913,-294.5 970,-294.5 970,-268.5 913,-268.5"/>
<text text-anchor="start" x="914" y="-284.7" font-family="Times New Roman,serif" font-size="11.00">Heavy Gear</text>
<text text-anchor="start" x="924" y="-272.7" font-family="Times New Roman,serif" font-size="11.00">Donned</text>
</g>
<!-- PPE Insufficient&#45;&gt;Heavy Gear Donned -->
<g id="edge32" class="edge"><title>PPE Insufficient:or:s&#45;&gt;Heavy Gear Donned:top:n</title>
<path fill="none" stroke="black" stroke-width="2" d="M942,-410.5C942,-410.5 942,-299.066 942,-295.583"/>
<polygon fill="black" stroke="black" stroke-width="2" points="942,-295.5 942,-295.5 942,-295.5 942,-295.5"/>
</g>
<!-- Life Vests lack Bouyancy -->
<g id="node34" class="node"><title>Life Vests lack Bouyancy</title>
<polygon fill="none" stroke="black" points="1004,-268.5 1004,-294.5 1074,-294.5 1074,-268.5 1004,-268.5"/>
<text text-anchor="start" x="1005" y="-284.7" font-family="Times New Roman,serif" font-size="11.00">Life Vests lack</text>
<text text-anchor="start" x="1016.5" y="-272.7" font-family="Times New Roman,serif" font-size="11.00">Bouyancy</text>
</g>
<!-- PPE Insufficient&#45;&gt;Life Vests lack Bouyancy -->
<g id="edge33" class="edge"><title>PPE Insufficient:or:s&#45;&gt;Life Vests lack Bouyancy:top:n</title>
<path fill="none" stroke="black" stroke-width="2" d="M942,-410.5C942,-410.5 1035.99,-299.066 1038.93,-295.583"/>
<polygon fill="black" stroke="black" stroke-width="2" points="1039,-295.5 1039,-295.5 1039,-295.5 1039,-295.5"/>
</g>
<!-- Radio for Help -->
<g id="node20" class="node"><title>Radio for Help</title>
<polygon fill="none" stroke="black" points="8,-16 8,-30 76,-30 76,-16 8,-16"/>
<text text-anchor="start" x="9" y="-20.2" font-family="Times New Roman,serif" font-size="11.00">Radio for Help</text>
</g>
<!-- Communication Failure&#45;&gt;Radio for Help -->
<g id="edge19" class="edge"><title>Communication Failure:and:s&#45;&gt;Radio for Help:top:n</title>
<path fill="none" stroke="black" stroke-width="2" d="M187,-123.5C187,-123.5 46.4958,-33.868 42.1051,-31.067"/>
<polygon fill="black" stroke="black" stroke-width="2" points="42,-31 42,-31 42,-31 42,-31"/>
</g>
<!-- Pyrotechnic Signals -->
<g id="node21" class="node"><title>Pyrotechnic Signals</title>
<polygon fill="none" stroke="black" points="111,-10 111,-36 166,-36 166,-10 111,-10"/>
<text text-anchor="start" x="112" y="-26.2" font-family="Times New Roman,serif" font-size="11.00">Pyrotechnic</text>
<text text-anchor="start" x="123" y="-14.2" font-family="Times New Roman,serif" font-size="11.00">Signals</text>
</g>
<!-- Communication Failure&#45;&gt;Pyrotechnic Signals -->
<g id="edge20" class="edge"><title>Communication Failure:and:s&#45;&gt;Pyrotechnic Signals:top:n</title>
<path fill="none" stroke="black" stroke-width="2" d="M187,-123.5C187,-123.5 140.488,-39.682 139.035,-37.0627"/>
<polygon fill="black" stroke="black" stroke-width="2" points="139,-37 139,-37 139,-37 139,-37"/>
</g>
<!-- November Flag -->
<g id="node22" class="node"><title>November Flag</title>
<polygon fill="none" stroke="black" points="200,-16 200,-30 271,-30 271,-16 200,-16"/>
<text text-anchor="start" x="201" y="-20.2" font-family="Times New Roman,serif" font-size="11.00">November Flag</text>
</g>
<!-- Communication Failure&#45;&gt;November Flag -->
<g id="edge21" class="edge"><title>Communication Failure:and:s&#45;&gt;November Flag:top:n</title>
<path fill="none" stroke="black" stroke-width="2" d="M187,-123.5C187,-123.5 234.481,-33.868 235.964,-31.067"/>
<polygon fill="black" stroke="black" stroke-width="2" points="236,-31 236,-31 236,-31 236,-31"/>
</g>
<!-- Boat 1 missing -->
<g id="node23" class="node"><title>Boat 1 missing</title>
<polygon fill="none" stroke="black" points="305,-16 305,-30 372,-30 372,-16 305,-16"/>
<text text-anchor="start" x="306" y="-20.2" font-family="Times New Roman,serif" font-size="11.00">Boat 1 missing</text>
</g>
<!-- Safety Boats Not Present&#45;&gt;Boat 1 missing -->
<g id="edge22" class="edge"><title>Safety Boats Not Present:or:s&#45;&gt;Boat 1 missing:top:n</title>
<path fill="none" stroke="black" stroke-width="2" d="M440,-120.5C440,-120.5 342.132,-33.775 339.073,-31.0649"/>
<polygon fill="black" stroke="black" stroke-width="2" points="339,-31 339,-31 339,-31 339,-31"/>
</g>
<!-- Boat 2 missing -->
<g id="node24" class="node"><title>Boat 2 missing</title>
<polygon fill="none" stroke="black" points="406,-16 406,-30 473,-30 473,-16 406,-16"/>
<text text-anchor="start" x="407" y="-20.2" font-family="Times New Roman,serif" font-size="11.00">Boat 2 missing</text>
</g>
<!-- Safety Boats Not Present&#45;&gt;Boat 2 missing -->
<g id="edge23" class="edge"><title>Safety Boats Not Present:or:s&#45;&gt;Boat 2 missing:top:n</title>
<path fill="none" stroke="black" stroke-width="2" d="M440,-120.5C440,-120.5 440,-33.775 440,-31.0649"/>
<polygon fill="black" stroke="black" stroke-width="2" points="440,-31 440,-31 440,-31 440,-31"/>
</g>
<!-- Embarked Troops -->
<g id="node25" class="node"><title>Embarked Troops</title>
<polygon fill="none" stroke="black" points="507,-16 507,-30 588,-30 588,-16 507,-16"/>
<text text-anchor="start" x="508" y="-20.2" font-family="Times New Roman,serif" font-size="11.00">Embarked Troops</text>
</g>
<!-- Personnel Not Evacuated&#45;&gt;Embarked Troops -->
<g id="edge24" class="edge"><title>Personnel Not Evacuated:and:s&#45;&gt;Embarked Troops:top:n</title>
<path fill="none" stroke="black" stroke-width="2" d="M661,-123.5C661,-123.5 551.504,-33.868 548.082,-31.067"/>
<polygon fill="black" stroke="black" stroke-width="2" points="548,-31 548,-31 548,-31 548,-31"/>
</g>
<!-- Crew evacuation -->
<g id="node26" class="node"><title>Crew evacuation</title>
<polygon fill="none" stroke="black" points="622,-16 622,-30 700,-30 700,-16 622,-16"/>
<text text-anchor="start" x="623" y="-20.2" font-family="Times New Roman,serif" font-size="11.00">Crew evacuation</text>
</g>
<!-- Personnel Not Evacuated&#45;&gt;Crew evacuation -->
<g id="edge25" class="edge"><title>Personnel Not Evacuated:and:s&#45;&gt;Crew evacuation:top:n</title>
<path fill="none" stroke="black" stroke-width="2" d="M661,-123.5C661,-123.5 661,-33.868 661,-31.067"/>
<polygon fill="black" stroke="black" stroke-width="2" points="661,-31 661,-31 661,-31 661,-31"/>
</g>
<!-- Lights missing on doors -->
<g id="node27" class="node"><title>Lights missing on doors</title>
<polygon fill="none" stroke="black" points="735,-10 735,-36 800,-36 800,-10 735,-10"/>
<text text-anchor="start" x="736" y="-26.2" font-family="Times New Roman,serif" font-size="11.00">Lights missing</text>
<text text-anchor="start" x="748.5" y="-14.2" font-family="Times New Roman,serif" font-size="11.00">on doors</text>
</g>
<!-- Exits Non Functional&#45;&gt;Lights missing on doors -->
<g id="edge26" class="edge"><title>Exits Non Functional:or:s&#45;&gt;Lights missing on doors:top:n</title>
<path fill="none" stroke="black" stroke-width="2" d="M760,-120.5C760,-120.5 767.752,-39.589 767.994,-37.0605"/>
<polygon fill="black" stroke="black" stroke-width="2" points="768,-37 768,-37 768,-37 768,-37"/>
</g>
<!-- handles difficult to operate -->
<g id="node28" class="node"><title>handles difficult to operate</title>
<polygon fill="none" stroke="black" points="834,-4 834,-42 881,-42 881,-4 834,-4"/>
<text text-anchor="start" x="840.5" y="-32.2" font-family="Times New Roman,serif" font-size="11.00">handles</text>
<text text-anchor="start" x="835" y="-20.2" font-family="Times New Roman,serif" font-size="11.00">difficult to</text>
<text text-anchor="start" x="840.5" y="-8.2" font-family="Times New Roman,serif" font-size="11.00">operate</text>
</g>
<!-- Exits Non Functional&#45;&gt;handles difficult to operate -->
<g id="edge27" class="edge"><title>Exits Non Functional:or:s&#45;&gt;handles difficult to operate:top:n</title>
<path fill="none" stroke="black" stroke-width="2" d="M760,-120.5C760,-120.5 854.961,-45.403 857.929,-43.0562"/>
<polygon fill="black" stroke="black" stroke-width="2" points="858,-43 858,-43 858,-43 858,-43"/>
</g>
<!-- No Emergency Lighting -->
<g id="node29" class="node"><title>No Emergency Lighting</title>
<polygon fill="none" stroke="black" points="915,-10 915,-36 984,-36 984,-10 915,-10"/>
<text text-anchor="start" x="916" y="-26.2" font-family="Times New Roman,serif" font-size="11.00">No Emergency</text>
<text text-anchor="start" x="931.5" y="-14.2" font-family="Times New Roman,serif" font-size="11.00">Lighting</text>
</g>
<!-- Exits Non Functional&#45;&gt;No Emergency Lighting -->
<g id="edge28" class="edge"><title>Exits Non Functional:or:s&#45;&gt;No Emergency Lighting:top:n</title>
<path fill="none" stroke="black" stroke-width="2" d="M760,-120.5C760,-120.5 944.109,-39.589 949.862,-37.0605"/>
<polygon fill="black" stroke="black" stroke-width="2" points="950,-37 950,-37 950,-37 950,-37"/>
</g>
</g>
</svg>
