<?xml version="1.0" encoding="UTF-8" standalone="no"?>
<!DOCTYPE svg PUBLIC "-//W3C//DTD SVG 1.1//EN"
 "http://www.w3.org/Graphics/SVG/1.1/DTD/svg11.dtd">
<!-- Generated by graphviz version 2.43.0 (0)
 -->
<!-- Title: %3 Pages: 1 -->
<svg width="251pt" height="108pt"
 viewBox="36.00 0.00 215.00 108.00" xmlns="http://www.w3.org/2000/svg" xmlns:xlink="http://www.w3.org/1999/xlink">
<g id="graph0" class="graph" transform="scale(1 1) rotate(0) translate(40 104)">
<title>%3</title>
<polygon fill="white" stroke="transparent" points="-4,4 -4,-104 175,-104 175,4 -4,4"/>
<!-- Temperature -->
<g id="node1" class="node">
<title>Temperature</title>
<polygon fill="none" stroke="blue" points="171,-36 100,-36 100,0 171,0 171,-36"/>
<text text-anchor="middle" x="135.5" y="-15.5" font-family="arial" font-size="10.00" fill="blue">Temperature</text>
</g>
<!-- Heating -->
<g id="node2" class="node">
<title>Heating</title>
<ellipse fill="none" stroke="blue" cx="57" cy="-18" rx="7" ry="7"/>
<text text-anchor="middle" x="57" y="-3.5" font-family="arial" font-size="10.00" fill="blue">Heating</text>
</g>
<!-- Temperature&#45;&gt;Heating -->
<g id="edge4" class="edge">
<title>Temperature:nw&#45;&gt;Heating</title>
<path fill="none" stroke="red" d="M100,-36C91.84,-44.16 79.39,-37.23 70.16,-29.73"/>
<polygon fill="red" stroke="red" points="72.3,-26.95 62.54,-22.83 67.61,-32.14 72.3,-26.95"/>
</g>
<!-- Heating&#45;&gt;Temperature -->
<g id="edge1" class="edge">
<title>Heating&#45;&gt;Temperature</title>
<path fill="none" stroke="blue" d="M64,-17C69.87,-17 79.37,-17 89.53,-17"/>
<path fill="none" stroke="blue" d="M64,-19C69.87,-19 79.37,-19 89.53,-19"/>
<polygon fill="none" stroke="blue" points="89.8,-21.5 99.8,-18 89.8,-14.5 89.8,-21.5"/>
</g>
<!-- Set_Point -->
<g id="node3" class="node">
<title>Set_Point</title>
<ellipse fill="none" stroke="blue" cx="7" cy="-93" rx="7" ry="7"/>
<text text-anchor="middle" x="7" y="-78.5" font-family="arial" font-size="10.00" fill="blue">Set_Point</text>
</g>
<!-- Set_Point&#45;&gt;Heating -->
<g id="edge5" class="edge">
<title>Set_Point&#45;&gt;Heating</title>
<path fill="none" stroke="red" d="M11.77,-87.11C19.23,-75.45 36.11,-49.08 46.72,-32.5"/>
<polygon fill="red" stroke="red" points="49.94,-33.96 52.38,-23.65 44.04,-30.19 49.94,-33.96"/>
</g>
<!-- Gain -->
<g id="node4" class="node">
<title>Gain</title>
<ellipse fill="none" stroke="blue" cx="7" cy="-61" rx="7" ry="7"/>
<text text-anchor="middle" x="7" y="-46.5" font-family="arial" font-size="10.00" fill="blue">Gain</text>
</g>
<!-- Gain&#45;&gt;Heating -->
<g id="edge3" class="edge">
<title>Gain&#45;&gt;Heating</title>
<path fill="none" stroke="red" d="M12.78,-56.72C19.89,-50.34 33.52,-38.14 43.57,-29.13"/>
<polygon fill="red" stroke="red" points="46.13,-31.54 51.24,-22.26 41.46,-26.33 46.13,-31.54"/>
</g>
<!-- Heating_source -->
<g id="node5" class="node">
<title>Heating_source</title>
<ellipse fill="none" stroke="transparent" cx="7" cy="-18" rx="0.5" ry="18"/>
<text text-anchor="middle" x="7" y="-14.3" font-family="arial" font-size="14.00" fill="blue">✽</text>
</g>
<!-- Heating_source&#45;&gt;Heating -->
<g id="edge2" class="edge">
<title>Heating_source&#45;&gt;Heating</title>
<path fill="none" stroke="blue" d="M8.14,-17C10.29,-17 37.2,-17 49.7,-17"/>
<path fill="none" stroke="blue" d="M8.14,-19C10.29,-19 37.2,-19 49.7,-19"/>
</g>
</g>
</svg>
