<?xml version="1.0" encoding="utf-8" standalone="no"?>
<!DOCTYPE svg PUBLIC "-//W3C//DTD SVG 1.1//EN"
  "http://www.w3.org/Graphics/SVG/1.1/DTD/svg11.dtd">
<svg xmlns:xlink="http://www.w3.org/1999/xlink" width="432pt" height="288pt" viewBox="0 0 432 288" xmlns="http://www.w3.org/2000/svg" version="1.1">
 <metadata>
  <rdf:RDF xmlns:dc="http://purl.org/dc/elements/1.1/" xmlns:cc="http://creativecommons.org/ns#" xmlns:rdf="http://www.w3.org/1999/02/22-rdf-syntax-ns#">
   <cc:Work>
    <dc:type rdf:resource="http://purl.org/dc/dcmitype/StillImage"/>
    <dc:date>2025-07-07T22:58:13.673025</dc:date>
    <dc:format>image/svg+xml</dc:format>
    <dc:creator>
     <cc:Agent>
      <dc:title>Matplotlib v3.10.0, https://matplotlib.org/</dc:title>
     </cc:Agent>
    </dc:creator>
   </cc:Work>
  </rdf:RDF>
 </metadata>
 <defs>
  <style type="text/css">*{stroke-linejoin: round; stroke-linecap: butt}</style>
 </defs>
 <g id="figure_1">
  <g id="patch_1">
   <path d="M 0 288 
L 432 288 
L 432 0 
L 0 0 
z
" style="fill: #ffffff"/>
  </g>
  <g id="axes_1">
   <g id="patch_2">
    <path d="M 54 256.32 
L 388.8 256.32 
L 388.8 34.56 
L 54 34.56 
z
" style="fill: #ffffff"/>
   </g>
   <g id="matplotlib.axis_1">
    <g id="xtick_1">
     <g id="line2d_1">
      <defs>
       <path id="m89eb17254d" d="M 0 0 
L 0 3.5 
" style="stroke: #000000; stroke-width: 0.8"/>
      </defs>
      <g>
       <use xlink:href="#m89eb17254d" x="69.218182" y="256.32" style="stroke: #000000; stroke-width: 0.8"/>
      </g>
     </g>
     <g id="text_1">
      <!-- 0 -->
      <g transform="translate(66.036932 270.918437) scale(0.1 -0.1)">
       <defs>
        <path id="DejaVuSans-30" d="M 2034 4250 
Q 1547 4250 1301 3770 
Q 1056 3291 1056 2328 
Q 1056 1369 1301 889 
Q 1547 409 2034 409 
Q 2525 409 2770 889 
Q 3016 1369 3016 2328 
Q 3016 3291 2770 3770 
Q 2525 4250 2034 4250 
z
M 2034 4750 
Q 2819 4750 3233 4129 
Q 3647 3509 3647 2328 
Q 3647 1150 3233 529 
Q 2819 -91 2034 -91 
Q 1250 -91 836 529 
Q 422 1150 422 2328 
Q 422 3509 836 4129 
Q 1250 4750 2034 4750 
z
" transform="scale(0.015625)"/>
       </defs>
       <use xlink:href="#DejaVuSans-30"/>
      </g>
     </g>
    </g>
    <g id="xtick_2">
     <g id="line2d_2">
      <g>
       <use xlink:href="#m89eb17254d" x="130.090909" y="256.32" style="stroke: #000000; stroke-width: 0.8"/>
      </g>
     </g>
     <g id="text_2">
      <!-- 2 -->
      <g transform="translate(126.909659 270.918437) scale(0.1 -0.1)">
       <defs>
        <path id="DejaVuSans-32" d="M 1228 531 
L 3431 531 
L 3431 0 
L 469 0 
L 469 531 
Q 828 903 1448 1529 
Q 2069 2156 2228 2338 
Q 2531 2678 2651 2914 
Q 2772 3150 2772 3378 
Q 2772 3750 2511 3984 
Q 2250 4219 1831 4219 
Q 1534 4219 1204 4116 
Q 875 4013 500 3803 
L 500 4441 
Q 881 4594 1212 4672 
Q 1544 4750 1819 4750 
Q 2544 4750 2975 4387 
Q 3406 4025 3406 3419 
Q 3406 3131 3298 2873 
Q 3191 2616 2906 2266 
Q 2828 2175 2409 1742 
Q 1991 1309 1228 531 
z
" transform="scale(0.015625)"/>
       </defs>
       <use xlink:href="#DejaVuSans-32"/>
      </g>
     </g>
    </g>
    <g id="xtick_3">
     <g id="line2d_3">
      <g>
       <use xlink:href="#m89eb17254d" x="190.963636" y="256.32" style="stroke: #000000; stroke-width: 0.8"/>
      </g>
     </g>
     <g id="text_3">
      <!-- 4 -->
      <g transform="translate(187.782386 270.918437) scale(0.1 -0.1)">
       <defs>
        <path id="DejaVuSans-34" d="M 2419 4116 
L 825 1625 
L 2419 1625 
L 2419 4116 
z
M 2253 4666 
L 3047 4666 
L 3047 1625 
L 3713 1625 
L 3713 1100 
L 3047 1100 
L 3047 0 
L 2419 0 
L 2419 1100 
L 313 1100 
L 313 1709 
L 2253 4666 
z
" transform="scale(0.015625)"/>
       </defs>
       <use xlink:href="#DejaVuSans-34"/>
      </g>
     </g>
    </g>
    <g id="xtick_4">
     <g id="line2d_4">
      <g>
       <use xlink:href="#m89eb17254d" x="251.836364" y="256.32" style="stroke: #000000; stroke-width: 0.8"/>
      </g>
     </g>
     <g id="text_4">
      <!-- 6 -->
      <g transform="translate(248.655114 270.918437) scale(0.1 -0.1)">
       <defs>
        <path id="DejaVuSans-36" d="M 2113 2584 
Q 1688 2584 1439 2293 
Q 1191 2003 1191 1497 
Q 1191 994 1439 701 
Q 1688 409 2113 409 
Q 2538 409 2786 701 
Q 3034 994 3034 1497 
Q 3034 2003 2786 2293 
Q 2538 2584 2113 2584 
z
M 3366 4563 
L 3366 3988 
Q 3128 4100 2886 4159 
Q 2644 4219 2406 4219 
Q 1781 4219 1451 3797 
Q 1122 3375 1075 2522 
Q 1259 2794 1537 2939 
Q 1816 3084 2150 3084 
Q 2853 3084 3261 2657 
Q 3669 2231 3669 1497 
Q 3669 778 3244 343 
Q 2819 -91 2113 -91 
Q 1303 -91 875 529 
Q 447 1150 447 2328 
Q 447 3434 972 4092 
Q 1497 4750 2381 4750 
Q 2619 4750 2861 4703 
Q 3103 4656 3366 4563 
z
" transform="scale(0.015625)"/>
       </defs>
       <use xlink:href="#DejaVuSans-36"/>
      </g>
     </g>
    </g>
    <g id="xtick_5">
     <g id="line2d_5">
      <g>
       <use xlink:href="#m89eb17254d" x="312.709091" y="256.32" style="stroke: #000000; stroke-width: 0.8"/>
      </g>
     </g>
     <g id="text_5">
      <!-- 8 -->
      <g transform="translate(309.527841 270.918437) scale(0.1 -0.1)">
       <defs>
        <path id="DejaVuSans-38" d="M 2034 2216 
Q 1584 2216 1326 1975 
Q 1069 1734 1069 1313 
Q 1069 891 1326 650 
Q 1584 409 2034 409 
Q 2484 409 2743 651 
Q 3003 894 3003 1313 
Q 3003 1734 2745 1975 
Q 2488 2216 2034 2216 
z
M 1403 2484 
Q 997 2584 770 2862 
Q 544 3141 544 3541 
Q 544 4100 942 4425 
Q 1341 4750 2034 4750 
Q 2731 4750 3128 4425 
Q 3525 4100 3525 3541 
Q 3525 3141 3298 2862 
Q 3072 2584 2669 2484 
Q 3125 2378 3379 2068 
Q 3634 1759 3634 1313 
Q 3634 634 3220 271 
Q 2806 -91 2034 -91 
Q 1263 -91 848 271 
Q 434 634 434 1313 
Q 434 1759 690 2068 
Q 947 2378 1403 2484 
z
M 1172 3481 
Q 1172 3119 1398 2916 
Q 1625 2713 2034 2713 
Q 2441 2713 2670 2916 
Q 2900 3119 2900 3481 
Q 2900 3844 2670 4047 
Q 2441 4250 2034 4250 
Q 1625 4250 1398 4047 
Q 1172 3844 1172 3481 
z
" transform="scale(0.015625)"/>
       </defs>
       <use xlink:href="#DejaVuSans-38"/>
      </g>
     </g>
    </g>
    <g id="xtick_6">
     <g id="line2d_6">
      <g>
       <use xlink:href="#m89eb17254d" x="373.581818" y="256.32" style="stroke: #000000; stroke-width: 0.8"/>
      </g>
     </g>
     <g id="text_6">
      <!-- 10 -->
      <g transform="translate(367.219318 270.918437) scale(0.1 -0.1)">
       <defs>
        <path id="DejaVuSans-31" d="M 794 531 
L 1825 531 
L 1825 4091 
L 703 3866 
L 703 4441 
L 1819 4666 
L 2450 4666 
L 2450 531 
L 3481 531 
L 3481 0 
L 794 0 
L 794 531 
z
" transform="scale(0.015625)"/>
       </defs>
       <use xlink:href="#DejaVuSans-31"/>
       <use xlink:href="#DejaVuSans-30" transform="translate(63.623047 0)"/>
      </g>
     </g>
    </g>
    <g id="text_7">
     <!-- Time -->
     <g transform="translate(209.166406 284.596563) scale(0.1 -0.1)">
      <defs>
       <path id="DejaVuSans-54" d="M -19 4666 
L 3928 4666 
L 3928 4134 
L 2272 4134 
L 2272 0 
L 1638 0 
L 1638 4134 
L -19 4134 
L -19 4666 
z
" transform="scale(0.015625)"/>
       <path id="DejaVuSans-69" d="M 603 3500 
L 1178 3500 
L 1178 0 
L 603 0 
L 603 3500 
z
M 603 4863 
L 1178 4863 
L 1178 4134 
L 603 4134 
L 603 4863 
z
" transform="scale(0.015625)"/>
       <path id="DejaVuSans-6d" d="M 3328 2828 
Q 3544 3216 3844 3400 
Q 4144 3584 4550 3584 
Q 5097 3584 5394 3201 
Q 5691 2819 5691 2113 
L 5691 0 
L 5113 0 
L 5113 2094 
Q 5113 2597 4934 2840 
Q 4756 3084 4391 3084 
Q 3944 3084 3684 2787 
Q 3425 2491 3425 1978 
L 3425 0 
L 2847 0 
L 2847 2094 
Q 2847 2600 2669 2842 
Q 2491 3084 2119 3084 
Q 1678 3084 1418 2786 
Q 1159 2488 1159 1978 
L 1159 0 
L 581 0 
L 581 3500 
L 1159 3500 
L 1159 2956 
Q 1356 3278 1631 3431 
Q 1906 3584 2284 3584 
Q 2666 3584 2933 3390 
Q 3200 3197 3328 2828 
z
" transform="scale(0.015625)"/>
       <path id="DejaVuSans-65" d="M 3597 1894 
L 3597 1613 
L 953 1613 
Q 991 1019 1311 708 
Q 1631 397 2203 397 
Q 2534 397 2845 478 
Q 3156 559 3463 722 
L 3463 178 
Q 3153 47 2828 -22 
Q 2503 -91 2169 -91 
Q 1331 -91 842 396 
Q 353 884 353 1716 
Q 353 2575 817 3079 
Q 1281 3584 2069 3584 
Q 2775 3584 3186 3129 
Q 3597 2675 3597 1894 
z
M 3022 2063 
Q 3016 2534 2758 2815 
Q 2500 3097 2075 3097 
Q 1594 3097 1305 2825 
Q 1016 2553 972 2059 
L 3022 2063 
z
" transform="scale(0.015625)"/>
      </defs>
      <use xlink:href="#DejaVuSans-54"/>
      <use xlink:href="#DejaVuSans-69" transform="translate(57.958984 0)"/>
      <use xlink:href="#DejaVuSans-6d" transform="translate(85.742188 0)"/>
      <use xlink:href="#DejaVuSans-65" transform="translate(183.154297 0)"/>
     </g>
    </g>
   </g>
   <g id="matplotlib.axis_2">
    <g id="ytick_1">
     <g id="line2d_7">
      <defs>
       <path id="m22ff868e06" d="M 0 0 
L -3.5 0 
" style="stroke: #000000; stroke-width: 0.8"/>
      </defs>
      <g>
       <use xlink:href="#m22ff868e06" x="54" y="246.24" style="stroke: #000000; stroke-width: 0.8"/>
      </g>
     </g>
     <g id="text_8">
      <!-- 0 -->
      <g transform="translate(40.6375 250.039219) scale(0.1 -0.1)">
       <use xlink:href="#DejaVuSans-30"/>
      </g>
     </g>
    </g>
    <g id="ytick_2">
     <g id="line2d_8">
      <g>
       <use xlink:href="#m22ff868e06" x="54" y="205.92" style="stroke: #000000; stroke-width: 0.8"/>
      </g>
     </g>
     <g id="text_9">
      <!-- 20 -->
      <g transform="translate(34.275 209.719219) scale(0.1 -0.1)">
       <use xlink:href="#DejaVuSans-32"/>
       <use xlink:href="#DejaVuSans-30" transform="translate(63.623047 0)"/>
      </g>
     </g>
    </g>
    <g id="ytick_3">
     <g id="line2d_9">
      <g>
       <use xlink:href="#m22ff868e06" x="54" y="165.6" style="stroke: #000000; stroke-width: 0.8"/>
      </g>
     </g>
     <g id="text_10">
      <!-- 40 -->
      <g transform="translate(34.275 169.399219) scale(0.1 -0.1)">
       <use xlink:href="#DejaVuSans-34"/>
       <use xlink:href="#DejaVuSans-30" transform="translate(63.623047 0)"/>
      </g>
     </g>
    </g>
    <g id="ytick_4">
     <g id="line2d_10">
      <g>
       <use xlink:href="#m22ff868e06" x="54" y="125.28" style="stroke: #000000; stroke-width: 0.8"/>
      </g>
     </g>
     <g id="text_11">
      <!-- 60 -->
      <g transform="translate(34.275 129.079219) scale(0.1 -0.1)">
       <use xlink:href="#DejaVuSans-36"/>
       <use xlink:href="#DejaVuSans-30" transform="translate(63.623047 0)"/>
      </g>
     </g>
    </g>
    <g id="ytick_5">
     <g id="line2d_11">
      <g>
       <use xlink:href="#m22ff868e06" x="54" y="84.96" style="stroke: #000000; stroke-width: 0.8"/>
      </g>
     </g>
     <g id="text_12">
      <!-- 80 -->
      <g transform="translate(34.275 88.759219) scale(0.1 -0.1)">
       <use xlink:href="#DejaVuSans-38"/>
       <use xlink:href="#DejaVuSans-30" transform="translate(63.623047 0)"/>
      </g>
     </g>
    </g>
    <g id="ytick_6">
     <g id="line2d_12">
      <g>
       <use xlink:href="#m22ff868e06" x="54" y="44.64" style="stroke: #000000; stroke-width: 0.8"/>
      </g>
     </g>
     <g id="text_13">
      <!-- 100 -->
      <g transform="translate(27.9125 48.439219) scale(0.1 -0.1)">
       <use xlink:href="#DejaVuSans-31"/>
       <use xlink:href="#DejaVuSans-30" transform="translate(63.623047 0)"/>
       <use xlink:href="#DejaVuSans-30" transform="translate(127.246094 0)"/>
      </g>
     </g>
    </g>
    <g id="text_14">
     <!-- level, goal, rate -->
     <g transform="translate(21.832812 184.529844) rotate(-90) scale(0.1 -0.1)">
      <defs>
       <path id="DejaVuSans-6c" d="M 603 4863 
L 1178 4863 
L 1178 0 
L 603 0 
L 603 4863 
z
" transform="scale(0.015625)"/>
       <path id="DejaVuSans-76" d="M 191 3500 
L 800 3500 
L 1894 563 
L 2988 3500 
L 3597 3500 
L 2284 0 
L 1503 0 
L 191 3500 
z
" transform="scale(0.015625)"/>
       <path id="DejaVuSans-2c" d="M 750 794 
L 1409 794 
L 1409 256 
L 897 -744 
L 494 -744 
L 750 256 
L 750 794 
z
" transform="scale(0.015625)"/>
       <path id="DejaVuSans-20" transform="scale(0.015625)"/>
       <path id="DejaVuSans-67" d="M 2906 1791 
Q 2906 2416 2648 2759 
Q 2391 3103 1925 3103 
Q 1463 3103 1205 2759 
Q 947 2416 947 1791 
Q 947 1169 1205 825 
Q 1463 481 1925 481 
Q 2391 481 2648 825 
Q 2906 1169 2906 1791 
z
M 3481 434 
Q 3481 -459 3084 -895 
Q 2688 -1331 1869 -1331 
Q 1566 -1331 1297 -1286 
Q 1028 -1241 775 -1147 
L 775 -588 
Q 1028 -725 1275 -790 
Q 1522 -856 1778 -856 
Q 2344 -856 2625 -561 
Q 2906 -266 2906 331 
L 2906 616 
Q 2728 306 2450 153 
Q 2172 0 1784 0 
Q 1141 0 747 490 
Q 353 981 353 1791 
Q 353 2603 747 3093 
Q 1141 3584 1784 3584 
Q 2172 3584 2450 3431 
Q 2728 3278 2906 2969 
L 2906 3500 
L 3481 3500 
L 3481 434 
z
" transform="scale(0.015625)"/>
       <path id="DejaVuSans-6f" d="M 1959 3097 
Q 1497 3097 1228 2736 
Q 959 2375 959 1747 
Q 959 1119 1226 758 
Q 1494 397 1959 397 
Q 2419 397 2687 759 
Q 2956 1122 2956 1747 
Q 2956 2369 2687 2733 
Q 2419 3097 1959 3097 
z
M 1959 3584 
Q 2709 3584 3137 3096 
Q 3566 2609 3566 1747 
Q 3566 888 3137 398 
Q 2709 -91 1959 -91 
Q 1206 -91 779 398 
Q 353 888 353 1747 
Q 353 2609 779 3096 
Q 1206 3584 1959 3584 
z
" transform="scale(0.015625)"/>
       <path id="DejaVuSans-61" d="M 2194 1759 
Q 1497 1759 1228 1600 
Q 959 1441 959 1056 
Q 959 750 1161 570 
Q 1363 391 1709 391 
Q 2188 391 2477 730 
Q 2766 1069 2766 1631 
L 2766 1759 
L 2194 1759 
z
M 3341 1997 
L 3341 0 
L 2766 0 
L 2766 531 
Q 2569 213 2275 61 
Q 1981 -91 1556 -91 
Q 1019 -91 701 211 
Q 384 513 384 1019 
Q 384 1609 779 1909 
Q 1175 2209 1959 2209 
L 2766 2209 
L 2766 2266 
Q 2766 2663 2505 2880 
Q 2244 3097 1772 3097 
Q 1472 3097 1187 3025 
Q 903 2953 641 2809 
L 641 3341 
Q 956 3463 1253 3523 
Q 1550 3584 1831 3584 
Q 2591 3584 2966 3190 
Q 3341 2797 3341 1997 
z
" transform="scale(0.015625)"/>
       <path id="DejaVuSans-72" d="M 2631 2963 
Q 2534 3019 2420 3045 
Q 2306 3072 2169 3072 
Q 1681 3072 1420 2755 
Q 1159 2438 1159 1844 
L 1159 0 
L 581 0 
L 581 3500 
L 1159 3500 
L 1159 2956 
Q 1341 3275 1631 3429 
Q 1922 3584 2338 3584 
Q 2397 3584 2469 3576 
Q 2541 3569 2628 3553 
L 2631 2963 
z
" transform="scale(0.015625)"/>
       <path id="DejaVuSans-74" d="M 1172 4494 
L 1172 3500 
L 2356 3500 
L 2356 3053 
L 1172 3053 
L 1172 1153 
Q 1172 725 1289 603 
Q 1406 481 1766 481 
L 2356 481 
L 2356 0 
L 1766 0 
Q 1100 0 847 248 
Q 594 497 594 1153 
L 594 3053 
L 172 3053 
L 172 3500 
L 594 3500 
L 594 4494 
L 1172 4494 
z
" transform="scale(0.015625)"/>
      </defs>
      <use xlink:href="#DejaVuSans-6c"/>
      <use xlink:href="#DejaVuSans-65" transform="translate(27.783203 0)"/>
      <use xlink:href="#DejaVuSans-76" transform="translate(89.306641 0)"/>
      <use xlink:href="#DejaVuSans-65" transform="translate(148.486328 0)"/>
      <use xlink:href="#DejaVuSans-6c" transform="translate(210.009766 0)"/>
      <use xlink:href="#DejaVuSans-2c" transform="translate(237.792969 0)"/>
      <use xlink:href="#DejaVuSans-20" transform="translate(269.580078 0)"/>
      <use xlink:href="#DejaVuSans-67" transform="translate(301.367188 0)"/>
      <use xlink:href="#DejaVuSans-6f" transform="translate(364.84375 0)"/>
      <use xlink:href="#DejaVuSans-61" transform="translate(426.025391 0)"/>
      <use xlink:href="#DejaVuSans-6c" transform="translate(487.304688 0)"/>
      <use xlink:href="#DejaVuSans-2c" transform="translate(515.087891 0)"/>
      <use xlink:href="#DejaVuSans-20" transform="translate(546.875 0)"/>
      <use xlink:href="#DejaVuSans-72" transform="translate(578.662109 0)"/>
      <use xlink:href="#DejaVuSans-61" transform="translate(619.775391 0)"/>
      <use xlink:href="#DejaVuSans-74" transform="translate(681.054688 0)"/>
      <use xlink:href="#DejaVuSans-65" transform="translate(720.263672 0)"/>
     </g>
    </g>
   </g>
   <g id="line2d_13">
    <path d="M 69.218182 145.44 
L 72.261818 125.28 
L 75.305455 109.152 
L 78.349091 96.2496 
L 81.392727 85.92768 
L 84.436364 77.670144 
L 87.48 71.064115 
L 90.523636 65.779292 
L 93.567273 61.551434 
L 96.610909 58.169147 
L 99.654545 55.463318 
L 102.698182 53.298654 
L 105.741818 51.566923 
L 108.785455 50.181539 
L 111.829091 49.073231 
L 114.872727 48.186585 
L 117.916364 47.477268 
L 120.96 46.909814 
L 124.003636 46.455851 
L 127.047273 46.092681 
L 130.090909 45.802145 
L 133.134545 45.569716 
L 136.178182 45.383773 
L 139.221818 45.235018 
L 142.265455 45.116015 
L 145.309091 45.020812 
L 148.352727 44.944649 
L 151.396364 44.883719 
L 154.44 44.834976 
L 157.483636 44.79598 
L 160.527273 44.764784 
L 163.570909 44.739827 
L 166.614545 44.719862 
L 169.658182 44.70389 
L 172.701818 44.691112 
L 175.745455 44.680889 
L 178.789091 44.672711 
L 181.832727 44.666169 
L 184.876364 44.660935 
L 187.92 44.656748 
L 190.963636 44.653399 
L 194.007273 44.650719 
L 197.050909 44.648575 
L 200.094545 44.64686 
L 203.138182 44.645488 
L 206.181818 44.64439 
L 209.225455 44.643512 
L 212.269091 44.64281 
L 215.312727 44.642248 
L 218.356364 44.641798 
L 221.4 44.641439 
L 224.443636 44.641151 
L 227.487273 44.640921 
L 230.530909 44.640737 
L 233.574545 44.640589 
L 236.618182 44.640471 
L 239.661818 44.640377 
L 242.705455 44.640302 
L 245.749091 44.640241 
L 248.792727 44.640193 
L 251.836364 44.640154 
L 254.88 44.640124 
L 257.923636 44.640099 
L 260.967273 44.640079 
L 264.010909 44.640063 
L 267.054545 44.640051 
L 270.098182 44.64004 
L 273.141818 44.640032 
L 276.185455 44.640026 
L 279.229091 44.640021 
L 282.272727 44.640017 
L 285.316364 44.640013 
L 288.36 44.640011 
L 291.403636 44.640008 
L 294.447273 44.640007 
L 297.490909 44.640005 
L 300.534545 44.640004 
L 303.578182 44.640003 
L 306.621818 44.640003 
L 309.665455 44.640002 
L 312.709091 44.640002 
L 315.752727 44.640001 
L 318.796364 44.640001 
L 321.84 44.640001 
L 324.883636 44.640001 
L 327.927273 44.640001 
L 330.970909 44.64 
L 334.014545 44.64 
L 337.058182 44.64 
L 340.101818 44.64 
L 343.145455 44.64 
L 346.189091 44.64 
L 349.232727 44.64 
L 352.276364 44.64 
L 355.32 44.64 
L 358.363636 44.64 
L 361.407273 44.64 
L 364.450909 44.64 
L 367.494545 44.64 
L 370.538182 44.64 
L 373.581818 44.64 
" clip-path="url(#pc0c19262be)" style="fill: none; stroke: #1f77b4; stroke-width: 1.5; stroke-linecap: square"/>
   </g>
   <g id="line2d_14">
    <path d="M 69.218182 44.64 
L 72.261818 44.64 
L 75.305455 44.64 
L 78.349091 44.64 
L 81.392727 44.64 
L 84.436364 44.64 
L 87.48 44.64 
L 90.523636 44.64 
L 93.567273 44.64 
L 96.610909 44.64 
L 99.654545 44.64 
L 102.698182 44.64 
L 105.741818 44.64 
L 108.785455 44.64 
L 111.829091 44.64 
L 114.872727 44.64 
L 117.916364 44.64 
L 120.96 44.64 
L 124.003636 44.64 
L 127.047273 44.64 
L 130.090909 44.64 
L 133.134545 44.64 
L 136.178182 44.64 
L 139.221818 44.64 
L 142.265455 44.64 
L 145.309091 44.64 
L 148.352727 44.64 
L 151.396364 44.64 
L 154.44 44.64 
L 157.483636 44.64 
L 160.527273 44.64 
L 163.570909 44.64 
L 166.614545 44.64 
L 169.658182 44.64 
L 172.701818 44.64 
L 175.745455 44.64 
L 178.789091 44.64 
L 181.832727 44.64 
L 184.876364 44.64 
L 187.92 44.64 
L 190.963636 44.64 
L 194.007273 44.64 
L 197.050909 44.64 
L 200.094545 44.64 
L 203.138182 44.64 
L 206.181818 44.64 
L 209.225455 44.64 
L 212.269091 44.64 
L 215.312727 44.64 
L 218.356364 44.64 
L 221.4 44.64 
L 224.443636 44.64 
L 227.487273 44.64 
L 230.530909 44.64 
L 233.574545 44.64 
L 236.618182 44.64 
L 239.661818 44.64 
L 242.705455 44.64 
L 245.749091 44.64 
L 248.792727 44.64 
L 251.836364 44.64 
L 254.88 44.64 
L 257.923636 44.64 
L 260.967273 44.64 
L 264.010909 44.64 
L 267.054545 44.64 
L 270.098182 44.64 
L 273.141818 44.64 
L 276.185455 44.64 
L 279.229091 44.64 
L 282.272727 44.64 
L 285.316364 44.64 
L 288.36 44.64 
L 291.403636 44.64 
L 294.447273 44.64 
L 297.490909 44.64 
L 300.534545 44.64 
L 303.578182 44.64 
L 306.621818 44.64 
L 309.665455 44.64 
L 312.709091 44.64 
L 315.752727 44.64 
L 318.796364 44.64 
L 321.84 44.64 
L 324.883636 44.64 
L 327.927273 44.64 
L 330.970909 44.64 
L 334.014545 44.64 
L 337.058182 44.64 
L 340.101818 44.64 
L 343.145455 44.64 
L 346.189091 44.64 
L 349.232727 44.64 
L 352.276364 44.64 
L 355.32 44.64 
L 358.363636 44.64 
L 361.407273 44.64 
L 364.450909 44.64 
L 367.494545 44.64 
L 370.538182 44.64 
L 373.581818 44.64 
" clip-path="url(#pc0c19262be)" style="fill: none; stroke: #ff7f0e; stroke-width: 1.5; stroke-linecap: square"/>
   </g>
   <g id="line2d_15">
    <path d="M 69.218182 44.64 
L 72.261818 84.96 
L 75.305455 117.216 
L 78.349091 143.0208 
L 81.392727 163.66464 
L 84.436364 180.179712 
L 87.48 193.39177 
L 90.523636 203.961416 
L 93.567273 212.417133 
L 96.610909 219.181706 
L 99.654545 224.593365 
L 102.698182 228.922692 
L 105.741818 232.386154 
L 108.785455 235.156923 
L 111.829091 237.373538 
L 114.872727 239.146831 
L 117.916364 240.565465 
L 120.96 241.700372 
L 124.003636 242.608297 
L 127.047273 243.334638 
L 130.090909 243.91571 
L 133.134545 244.380568 
L 136.178182 244.752455 
L 139.221818 245.049964 
L 142.265455 245.287971 
L 145.309091 245.478377 
L 148.352727 245.630701 
L 151.396364 245.752561 
L 154.44 245.850049 
L 157.483636 245.928039 
L 160.527273 245.990431 
L 163.570909 246.040345 
L 166.614545 246.080276 
L 169.658182 246.112221 
L 172.701818 246.137777 
L 175.745455 246.158221 
L 178.789091 246.174577 
L 181.832727 246.187662 
L 184.876364 246.198129 
L 187.92 246.206503 
L 190.963636 246.213203 
L 194.007273 246.218562 
L 197.050909 246.22285 
L 200.094545 246.22628 
L 203.138182 246.229024 
L 206.181818 246.231219 
L 209.225455 246.232975 
L 212.269091 246.23438 
L 215.312727 246.235504 
L 218.356364 246.236403 
L 221.4 246.237123 
L 224.443636 246.237698 
L 227.487273 246.238159 
L 230.530909 246.238527 
L 233.574545 246.238821 
L 236.618182 246.239057 
L 239.661818 246.239246 
L 242.705455 246.239397 
L 245.749091 246.239517 
L 248.792727 246.239614 
L 251.836364 246.239691 
L 254.88 246.239753 
L 257.923636 246.239802 
L 260.967273 246.239842 
L 264.010909 246.239873 
L 267.054545 246.239899 
L 270.098182 246.239919 
L 273.141818 246.239935 
L 276.185455 246.239948 
L 279.229091 246.239959 
L 282.272727 246.239967 
L 285.316364 246.239974 
L 288.36 246.239979 
L 291.403636 246.239983 
L 294.447273 246.239986 
L 297.490909 246.239989 
L 300.534545 246.239991 
L 303.578182 246.239993 
L 306.621818 246.239994 
L 309.665455 246.239996 
L 312.709091 246.239996 
L 315.752727 246.239997 
L 318.796364 246.239998 
L 321.84 246.239998 
L 324.883636 246.239999 
L 327.927273 246.239999 
L 330.970909 246.239999 
L 334.014545 246.239999 
L 337.058182 246.239999 
L 340.101818 246.24 
L 343.145455 246.24 
L 346.189091 246.24 
L 349.232727 246.24 
L 352.276364 246.24 
L 355.32 246.24 
L 358.363636 246.24 
L 361.407273 246.24 
L 364.450909 246.24 
L 367.494545 246.24 
L 370.538182 246.24 
L 373.581818 246.24 
" clip-path="url(#pc0c19262be)" style="fill: none; stroke: #2ca02c; stroke-width: 1.5; stroke-linecap: square"/>
   </g>
   <g id="patch_3">
    <path d="M 54 256.32 
L 54 34.56 
" style="fill: none; stroke: #000000; stroke-width: 0.8; stroke-linejoin: miter; stroke-linecap: square"/>
   </g>
   <g id="patch_4">
    <path d="M 54 256.32 
L 388.8 256.32 
" style="fill: none; stroke: #000000; stroke-width: 0.8; stroke-linejoin: miter; stroke-linecap: square"/>
   </g>
   <g id="legend_1">
    <g id="patch_5">
     <path d="M 326.01875 168.957188 
L 381.8 168.957188 
Q 383.8 168.957188 383.8 166.957188 
L 383.8 123.922813 
Q 383.8 121.922813 381.8 121.922813 
L 326.01875 121.922813 
Q 324.01875 121.922813 324.01875 123.922813 
L 324.01875 166.957188 
Q 324.01875 168.957188 326.01875 168.957188 
z
" style="fill: #ffffff; opacity: 0.8; stroke: #cccccc; stroke-linejoin: miter"/>
    </g>
    <g id="line2d_16">
     <path d="M 328.01875 130.02125 
L 338.01875 130.02125 
L 348.01875 130.02125 
" style="fill: none; stroke: #1f77b4; stroke-width: 1.5; stroke-linecap: square"/>
    </g>
    <g id="text_15">
     <!-- level -->
     <g transform="translate(356.01875 133.52125) scale(0.1 -0.1)">
      <use xlink:href="#DejaVuSans-6c"/>
      <use xlink:href="#DejaVuSans-65" transform="translate(27.783203 0)"/>
      <use xlink:href="#DejaVuSans-76" transform="translate(89.306641 0)"/>
      <use xlink:href="#DejaVuSans-65" transform="translate(148.486328 0)"/>
      <use xlink:href="#DejaVuSans-6c" transform="translate(210.009766 0)"/>
     </g>
    </g>
    <g id="line2d_17">
     <path d="M 328.01875 144.699375 
L 338.01875 144.699375 
L 348.01875 144.699375 
" style="fill: none; stroke: #ff7f0e; stroke-width: 1.5; stroke-linecap: square"/>
    </g>
    <g id="text_16">
     <!-- goal -->
     <g transform="translate(356.01875 148.199375) scale(0.1 -0.1)">
      <use xlink:href="#DejaVuSans-67"/>
      <use xlink:href="#DejaVuSans-6f" transform="translate(63.476562 0)"/>
      <use xlink:href="#DejaVuSans-61" transform="translate(124.658203 0)"/>
      <use xlink:href="#DejaVuSans-6c" transform="translate(185.9375 0)"/>
     </g>
    </g>
    <g id="line2d_18">
     <path d="M 328.01875 159.3775 
L 338.01875 159.3775 
L 348.01875 159.3775 
" style="fill: none; stroke: #2ca02c; stroke-width: 1.5; stroke-linecap: square"/>
    </g>
    <g id="text_17">
     <!-- rate -->
     <g transform="translate(356.01875 162.8775) scale(0.1 -0.1)">
      <use xlink:href="#DejaVuSans-72"/>
      <use xlink:href="#DejaVuSans-61" transform="translate(41.113281 0)"/>
      <use xlink:href="#DejaVuSans-74" transform="translate(102.392578 0)"/>
      <use xlink:href="#DejaVuSans-65" transform="translate(141.601562 0)"/>
     </g>
    </g>
   </g>
  </g>
 </g>
 <defs>
  <clipPath id="pc0c19262be">
   <rect x="54" y="34.56" width="334.8" height="221.76"/>
  </clipPath>
 </defs>
</svg>
