<?xml version="1.0" encoding="UTF-8" standalone="no"?>
<svg
   width="50"
   height="52"
   version="1.1"
   xmlns="http://www.w3.org/2000/svg">
   <g transform="translate(-22.95,2.65)">
    <path
       fill="none"
       stroke="#000000"
       stroke-width="2.5"
       d="M 48.32812,4.1093798 48.328126,-3 m -6e-6,52.95376 V 43.305394 40.81263"
       id="connectors" />
    <path
       fill-rule="evenodd"
       d="m 28.32812,49.23438 2.4375,-2 c 0,0 7.000049,-5.65625 17.5625,-5.65625 10.562451,0 17.5625,5.65625 17.5625,5.65625 l 2.4375,2 V 32.07813 c 10e-7,-2.408076 0.02451,-7.689699 -2.40625,-13.625 C 63.491106,12.517829 58.578604,5.9165938 49.04687,0.76562982 L 48.32812,2.0781298 47.60937,0.76562982 C 28.54371,11.068743 28.32812,27.321556 28.32812,32.07813 Z m 3,-5.875 V 32.07813 c 0,-4.684173 -0.130207,-18.28685 17,-27.9687502 8.429075,4.766786 12.68391,10.5212812 14.8125,15.7187502 2.195424,5.360661 2.187501,9.841925 2.1875,12.25 v 11.25 c -3.108434,-1.873588 -9.04935,-4.75 -17,-4.75 -7.973354,0 -13.900185,2.908531 -17,4.78125 z"
       id="path382" />
   </g>
 </svg>
