<?xml version="1.0" encoding="UTF-8" standalone="no"?>
<!DOCTYPE svg PUBLIC "-//W3C//DTD SVG 1.1//EN"
 "http://www.w3.org/Graphics/SVG/1.1/DTD/svg11.dtd">
<!-- Generated by graphviz version 2.43.0 (0)
 -->
<!-- Title: G Pages: 1 -->
<svg width="382pt" height="98pt"
 viewBox="0.00 0.00 382.00 98.00" xmlns="http://www.w3.org/2000/svg" xmlns:xlink="http://www.w3.org/1999/xlink">
<g id="graph0" class="graph" transform="scale(1 1) rotate(0) translate(4 94)">
<title>G</title>
<polygon fill="white" stroke="transparent" points="-4,4 -4,-94 378,-94 378,4 -4,4"/>
<!-- Source -->
<g id="node1" class="node">
<title>Source</title>
<text text-anchor="middle" x="27.5" y="-48.2" font-family="arial" font-size="11.00">❚❚❱</text>
<text text-anchor="middle" x="27.5" y="-36.2" font-family="arial" font-size="11.00">Source</text>
</g>
<!-- Router -->
<g id="node2" class="node">
<title>Router</title>
<text text-anchor="middle" x="132.5" y="-48.2" font-family="arial" font-size="11.00">❚❚▣</text>
<text text-anchor="middle" x="132.5" y="-36.2" font-family="arial" font-size="11.00">Router</text>
</g>
<!-- Source&#45;&gt;Router -->
<g id="edge1" class="edge">
<title>Source&#45;&gt;Router</title>
<path fill="none" stroke="black" d="M55.03,-45C67.07,-45 81.51,-45 94.59,-45"/>
<polygon fill="black" stroke="black" points="94.71,-48.5 104.71,-45 94.71,-41.5 94.71,-48.5"/>
</g>
<!-- Server A -->
<g id="node3" class="node">
<title>Server A</title>
<text text-anchor="middle" x="239.5" y="-75.2" font-family="arial" font-size="11.00">❚❚▣</text>
<text text-anchor="middle" x="239.5" y="-63.2" font-family="arial" font-size="11.00">Server A</text>
</g>
<!-- Router&#45;&gt;Server A -->
<g id="edge2" class="edge">
<title>Router&#45;&gt;Server A</title>
<path fill="none" stroke="black" d="M160.27,-51.88C172.37,-55 186.9,-58.73 200.14,-62.13"/>
<polygon fill="black" stroke="black" points="199.38,-65.56 209.94,-64.66 201.13,-58.78 199.38,-65.56"/>
</g>
<!-- Server B -->
<g id="node4" class="node">
<title>Server B</title>
<text text-anchor="middle" x="239.5" y="-21.2" font-family="arial" font-size="11.00">❚❚▣</text>
<text text-anchor="middle" x="239.5" y="-9.2" font-family="arial" font-size="11.00">Server B</text>
</g>
<!-- Router&#45;&gt;Server B -->
<g id="edge3" class="edge">
<title>Router&#45;&gt;Server B</title>
<path fill="none" stroke="black" d="M160.27,-38.12C172.37,-35 186.9,-31.27 200.14,-27.87"/>
<polygon fill="black" stroke="black" points="201.13,-31.22 209.94,-25.34 199.38,-24.44 201.13,-31.22"/>
</g>
<!-- Sink -->
<g id="node5" class="node">
<title>Sink</title>
<text text-anchor="middle" x="346.5" y="-48.2" font-family="arial" font-size="11.00">❱❚❚</text>
<text text-anchor="middle" x="346.5" y="-36.2" font-family="arial" font-size="11.00">Sink</text>
</g>
<!-- Server A&#45;&gt;Sink -->
<g id="edge4" class="edge">
<title>Server A&#45;&gt;Sink</title>
<path fill="none" stroke="black" d="M269.19,-64.62C281.36,-61.49 295.7,-57.81 308.64,-54.48"/>
<polygon fill="black" stroke="black" points="309.83,-57.79 318.65,-51.9 308.09,-51.01 309.83,-57.79"/>
</g>
<!-- Server B&#45;&gt;Sink -->
<g id="edge5" class="edge">
<title>Server B&#45;&gt;Sink</title>
<path fill="none" stroke="black" d="M269.19,-25.38C281.36,-28.51 295.7,-32.19 308.64,-35.52"/>
<polygon fill="black" stroke="black" points="308.09,-38.99 318.65,-38.1 309.83,-32.21 308.09,-38.99"/>
</g>
</g>
</svg>
