<?xml version="1.0" encoding="UTF-8" standalone="no"?><!DOCTYPE svg PUBLIC "-//W3C//DTD SVG 1.1//EN" "http://www.w3.org/Graphics/SVG/1.1/DTD/svg11.dtd"><!-- Generated by graphviz version 2.40.1 (20161225.0304)
 --><!-- Title: %0 Pages: 1 --><svg xmlns="http://www.w3.org/2000/svg" xmlns:xlink="http://www.w3.org/1999/xlink" width="909pt" height="262pt" viewBox="0.00 0.00 908.99 262.48">
<g id="graph0" class="graph" transform="scale(1 1) rotate(0) translate(4 258.4762)">
<title>%0</title>
<polygon fill="#ffffff" stroke="transparent" points="-4,4 -4,-258.4762 904.989,-258.4762 904.989,4 -4,4"/>
<!-- fabrication -->
<g id="node1" class="node">
<title>fabrication</title>
<polygon fill="none" stroke="#000000" points="323.5319,-254.2955 247.2565,-254.2955 247.2565,-178.0201 323.5319,-178.0201 323.5319,-254.2955"/>
<text text-anchor="middle" x="285.3942" y="-211.9578" font-family="Times,serif" font-size="14.00" fill="#000000">fabrication</text>
</g>
<!-- circuit card assembly -->
<g id="node5" class="node">
<title>circuit card assembly</title>
<polygon fill="none" stroke="#000000" points="451.0613,-241.5093 368.3583,-241.5093 368.3583,-158.8063 451.0613,-158.8063 451.0613,-241.5093"/>
<text text-anchor="middle" x="409.7098" y="-204.3578" font-family="Times,serif" font-size="14.00" fill="#000000">circuit card</text>
<text text-anchor="middle" x="409.7098" y="-187.5578" font-family="Times,serif" font-size="14.00" fill="#000000">assembly</text>
</g>
<!-- fabrication&#45;&gt;circuit card assembly -->
<g id="edge1" class="edge">
<title>fabrication-&gt;circuit card assembly</title>
<path fill="none" stroke="#ff0000" d="M323.7074,-211.2267C334.6326,-209.8206 346.7164,-208.2654 358.2881,-206.776"/>
<polygon fill="#ff0000" stroke="#ff0000" points="358.8121,-210.2375 368.2835,-205.4896 357.9185,-203.2948 358.8121,-210.2375"/>
</g>
<!-- final testing -->
<g id="node2" class="node">
<title>final testing</title>
<polygon fill="none" stroke="#000000" points="900.989,-152.1578 828.989,-152.1578 828.989,-80.1578 900.989,-80.1578 900.989,-152.1578"/>
<text text-anchor="middle" x="864.989" y="-120.3578" font-family="Times,serif" font-size="14.00" fill="#000000">final</text>
<text text-anchor="middle" x="864.989" y="-103.5578" font-family="Times,serif" font-size="14.00" fill="#000000">testing</text>
</g>
<!-- system requirements -->
<g id="node3" class="node">
<title>system requirements</title>
<polygon fill="none" stroke="#000000" points="89.1221,-160.7392 -.0407,-160.7392 -.0407,-71.5764 89.1221,-71.5764 89.1221,-160.7392"/>
<text text-anchor="middle" x="44.5407" y="-120.3578" font-family="Times,serif" font-size="14.00" fill="#000000">system</text>
<text text-anchor="middle" x="44.5407" y="-103.5578" font-family="Times,serif" font-size="14.00" fill="#000000">requirements</text>
</g>
<!-- chip design -->
<g id="node4" class="node">
<title>chip design</title>
<polygon fill="none" stroke="#000000" points="205.3141,-240.313 125.0037,-240.313 125.0037,-160.0026 205.3141,-160.0026 205.3141,-240.313"/>
<text text-anchor="middle" x="165.1589" y="-195.9578" font-family="Times,serif" font-size="14.00" fill="#000000">chip design</text>
</g>
<!-- system requirements&#45;&gt;chip design -->
<g id="edge2" class="edge">
<title>system requirements-&gt;chip design</title>
<path fill="none" stroke="#ff0000" d="M89.1118,-147.1976C97.9607,-153.3601 107.2956,-159.8611 116.2793,-166.1175"/>
<polygon fill="#ff0000" stroke="#ff0000" points="114.5513,-169.1791 124.7576,-172.0218 118.5517,-163.4348 114.5513,-169.1791"/>
</g>
<!-- GPS driver software development -->
<g id="node6" class="node">
<title>GPS driver software development</title>
<polygon fill="none" stroke="#000000" points="329.7104,-160.474 241.078,-160.474 241.078,-71.8416 329.7104,-71.8416 329.7104,-160.474"/>
<text text-anchor="middle" x="285.3942" y="-128.7578" font-family="Times,serif" font-size="14.00" fill="#000000">GPS driver</text>
<text text-anchor="middle" x="285.3942" y="-111.9578" font-family="Times,serif" font-size="14.00" fill="#000000">software</text>
<text text-anchor="middle" x="285.3942" y="-95.1578" font-family="Times,serif" font-size="14.00" fill="#000000">development</text>
</g>
<!-- system requirements&#45;&gt;GPS driver software development -->
<g id="edge4" class="edge">
<title>system requirements-&gt;GPS driver software development</title>
<path fill="none" stroke="#000000" d="M89.2789,-116.1578C129.2447,-116.1578 187.9137,-116.1578 230.6648,-116.1578"/>
<polygon fill="#000000" stroke="#000000" points="230.8956,-119.6579 240.8956,-116.1578 230.8955,-112.6579 230.8956,-119.6579"/>
</g>
<!-- microcode development -->
<g id="node7" class="node">
<title>microcode development</title>
<polygon fill="none" stroke="#000000" points="454.026,-88.474 365.3936,-88.474 365.3936,.1584 454.026,.1584 454.026,-88.474"/>
<text text-anchor="middle" x="409.7098" y="-48.3578" font-family="Times,serif" font-size="14.00" fill="#000000">microcode</text>
<text text-anchor="middle" x="409.7098" y="-31.5578" font-family="Times,serif" font-size="14.00" fill="#000000">development</text>
</g>
<!-- system requirements&#45;&gt;microcode development -->
<g id="edge3" class="edge">
<title>system requirements-&gt;microcode development</title>
<path fill="none" stroke="#000000" d="M89.404,-101.9915C128.9834,-89.9948 188.424,-73.1916 241.2364,-63.1578 278.9409,-55.9943 321.9423,-51.1991 355.0636,-48.218"/>
<polygon fill="#000000" stroke="#000000" points="355.7924,-51.6678 365.4509,-47.3131 355.1848,-44.6942 355.7924,-51.6678"/>
</g>
<!-- chip design&#45;&gt;fabrication -->
<g id="edge5" class="edge">
<title>chip design-&gt;fabrication</title>
<path fill="none" stroke="#ff0000" d="M205.53,-205.5301C215.5586,-206.8646 226.412,-208.3089 236.7898,-209.6899"/>
<polygon fill="#ff0000" stroke="#ff0000" points="236.5866,-213.1936 246.9609,-211.0434 237.51,-206.2548 236.5866,-213.1936"/>
</g>
<!-- breadboard testing -->
<g id="node9" class="node">
<title>breadboard testing</title>
<polygon fill="none" stroke="#000000" points="572.5664,-157.6241 489.6338,-157.6241 489.6338,-74.6915 572.5664,-74.6915 572.5664,-157.6241"/>
<text text-anchor="middle" x="531.1001" y="-120.3578" font-family="Times,serif" font-size="14.00" fill="#000000">breadboard</text>
<text text-anchor="middle" x="531.1001" y="-103.5578" font-family="Times,serif" font-size="14.00" fill="#000000">testing</text>
</g>
<!-- circuit card assembly&#45;&gt;breadboard testing -->
<g id="edge6" class="edge">
<title>circuit card assembly-&gt;breadboard testing</title>
<path fill="none" stroke="#ff0000" d="M451.1459,-171.4847C460.9118,-164.7269 471.4199,-157.4555 481.5046,-150.477"/>
<polygon fill="#ff0000" stroke="#ff0000" points="483.6191,-153.2701 489.8507,-144.7017 479.6359,-147.5139 483.6191,-153.2701"/>
</g>
<!-- GPS driver software development&#45;&gt;breadboard testing -->
<g id="edge7" class="edge">
<title>GPS driver software development-&gt;breadboard testing</title>
<path fill="none" stroke="#000000" d="M329.6053,-116.1578C371.7765,-116.1578 435.2759,-116.1578 479.6872,-116.1578"/>
<polygon fill="#000000" stroke="#000000" points="479.6989,-119.6579 489.6989,-116.1578 479.6989,-112.6579 479.6989,-119.6579"/>
</g>
<!-- microcode development&#45;&gt;breadboard testing -->
<g id="edge8" class="edge">
<title>microcode development-&gt;breadboard testing</title>
<path fill="none" stroke="#000000" d="M453.8779,-70.3551C462.6228,-75.542 471.8632,-81.0227 480.7942,-86.32"/>
<polygon fill="#000000" stroke="#000000" points="479.206,-89.4473 489.5924,-91.5384 482.777,-83.4266 479.206,-89.4473"/>
</g>
<!-- card production -->
<g id="node8" class="node">
<title>card production</title>
<polygon fill="none" stroke="#000000" points="792.818,-108.315 716.5036,-108.315 716.5036,-32.0006 792.818,-32.0006 792.818,-108.315"/>
<text text-anchor="middle" x="754.6608" y="-74.3578" font-family="Times,serif" font-size="14.00" fill="#000000">card</text>
<text text-anchor="middle" x="754.6608" y="-57.5578" font-family="Times,serif" font-size="14.00" fill="#000000">production</text>
</g>
<!-- card production&#45;&gt;final testing -->
<g id="edge9" class="edge">
<title>card production-&gt;final testing</title>
<path fill="none" stroke="#ff0000" d="M792.9386,-86.1173C801.4398,-89.6617 810.5332,-93.4531 819.2976,-97.1073"/>
<polygon fill="#ff0000" stroke="#ff0000" points="818.0585,-100.3827 828.6353,-101.0006 820.7524,-93.9218 818.0585,-100.3827"/>
</g>
<!-- software updates -->
<g id="node10" class="node">
<title>software updates</title>
<polygon fill="none" stroke="#000000" points="790.6608,-198.1578 718.6608,-198.1578 718.6608,-126.1578 790.6608,-126.1578 790.6608,-198.1578"/>
<text text-anchor="middle" x="754.6608" y="-166.3578" font-family="Times,serif" font-size="14.00" fill="#000000">software</text>
<text text-anchor="middle" x="754.6608" y="-149.5578" font-family="Times,serif" font-size="14.00" fill="#000000">updates</text>
</g>
<!-- breadboard testing&#45;&gt;software updates -->
<g id="edge11" class="edge">
<title>breadboard testing-&gt;software updates</title>
<path fill="none" stroke="#000000" d="M572.3651,-124.6485C610.8977,-132.577 668.3256,-144.3934 708.3954,-152.6382"/>
<polygon fill="#000000" stroke="#000000" points="707.9407,-156.1179 718.441,-154.7052 709.3516,-149.2615 707.9407,-156.1179"/>
</g>
<!-- redesign -->
<g id="node11" class="node">
<title>redesign</title>
<polygon fill="none" stroke="#000000" points="680.3326,-120.1578 608.3326,-120.1578 608.3326,-48.1578 680.3326,-48.1578 680.3326,-120.1578"/>
<text text-anchor="middle" x="644.3326" y="-79.9578" font-family="Times,serif" font-size="14.00" fill="#000000">redesign</text>
</g>
<!-- breadboard testing&#45;&gt;redesign -->
<g id="edge10" class="edge">
<title>breadboard testing-&gt;redesign</title>
<path fill="none" stroke="#ff0000" d="M572.6207,-104.4239C580.9681,-102.0649 589.7878,-99.5724 598.2788,-97.1728"/>
<polygon fill="#ff0000" stroke="#ff0000" points="599.3764,-100.4998 608.0477,-94.4121 597.4727,-93.7636 599.3764,-100.4998"/>
</g>
<!-- software updates&#45;&gt;final testing -->
<g id="edge12" class="edge">
<title>software updates-&gt;final testing</title>
<path fill="none" stroke="#000000" d="M790.7864,-147.0957C799.9302,-143.2833 809.8696,-139.1392 819.4138,-135.1598"/>
<polygon fill="#000000" stroke="#000000" points="820.8993,-138.3326 828.7823,-131.2538 818.2054,-131.8716 820.8993,-138.3326"/>
</g>
<!-- redesign&#45;&gt;card production -->
<g id="edge13" class="edge">
<title>redesign-&gt;card production</title>
<path fill="none" stroke="#ff0000" d="M680.4582,-79.5737C688.679,-78.5305 697.5428,-77.4057 706.1844,-76.3092"/>
<polygon fill="#ff0000" stroke="#ff0000" points="706.6952,-79.7725 716.175,-75.0414 705.8139,-72.8282 706.6952,-79.7725"/>
</g>
</g>
</svg>