<?xml version="1.0" encoding="UTF-8" standalone="no"?>
<!DOCTYPE svg PUBLIC "-//W3C//DTD SVG 1.1//EN"
 "http://www.w3.org/Graphics/SVG/1.1/DTD/svg11.dtd">
<!-- Generated by graphviz version 2.43.0 (0)
 -->
<!-- Title: %3 Pages: 1 -->
<svg width="221pt" height="44pt"
 viewBox="36.00 0.00 185.00 44.00" xmlns="http://www.w3.org/2000/svg" xmlns:xlink="http://www.w3.org/1999/xlink">
<g id="graph0" class="graph" transform="scale(1 1) rotate(0) translate(40 40)">
<title>%3</title>
<polygon fill="white" stroke="transparent" points="-4,4 -4,-40 145,-40 145,4 -4,4"/>
<!-- Level -->
<g id="node1" class="node">
<title>Level</title>
<polygon fill="none" stroke="blue" points="141,-36 87,-36 87,0 141,0 141,-36"/>
<text text-anchor="middle" x="114" y="-15.5" font-family="arial" font-size="10.00" fill="blue">Level</text>
</g>
<!-- Ramp Input -->
<g id="node2" class="node">
<title>Ramp Input</title>
<ellipse fill="none" stroke="blue" cx="44" cy="-18" rx="7" ry="7"/>
<text text-anchor="middle" x="44" y="-3.5" font-family="arial" font-size="10.00" fill="blue">Ramp Input</text>
</g>
<!-- Ramp Input&#45;&gt;Level -->
<g id="edge1" class="edge">
<title>Ramp Input&#45;&gt;Level</title>
<path fill="none" stroke="blue" d="M51.28,-17C57.28,-17 66.85,-17 76.68,-17"/>
<path fill="none" stroke="blue" d="M51.28,-19C57.28,-19 66.85,-19 76.68,-19"/>
<polygon fill="none" stroke="blue" points="76.88,-21.5 86.88,-18 76.88,-14.5 76.88,-21.5"/>
</g>
<!-- Ramp Input_source -->
<g id="node3" class="node">
<title>Ramp Input_source</title>
<ellipse fill="none" stroke="transparent" cx="0.5" cy="-18" rx="0.5" ry="18"/>
<text text-anchor="middle" x="0.5" y="-14.3" font-family="arial" font-size="14.00" fill="blue">✽</text>
</g>
<!-- Ramp Input_source&#45;&gt;Ramp Input -->
<g id="edge2" class="edge">
<title>Ramp Input_source&#45;&gt;Ramp Input</title>
<path fill="none" stroke="blue" d="M1.12,-17C2.97,-17 25.6,-17 36.8,-17"/>
<path fill="none" stroke="blue" d="M1.12,-19C2.97,-19 25.6,-19 36.8,-19"/>
</g>
</g>
</svg>
