<?xml version="1.0" encoding="UTF-8" standalone="no"?>
<!DOCTYPE svg PUBLIC "-//W3C//DTD SVG 1.1//EN"
 "http://www.w3.org/Graphics/SVG/1.1/DTD/svg11.dtd">
<!-- Generated by graphviz version 2.43.0 (0)
 -->
<!-- Title: %3 Pages: 1 -->
<svg width="374pt" height="128pt"
 viewBox="36.00 0.00 338.00 127.71" xmlns="http://www.w3.org/2000/svg" xmlns:xlink="http://www.w3.org/1999/xlink">
<g id="graph0" class="graph" transform="scale(1 1) rotate(0) translate(40 123.71)">
<title>%3</title>
<polygon fill="white" stroke="transparent" points="-4,4 -4,-123.71 298,-123.71 298,4 -4,4"/>
<!-- Stage1 -->
<g id="node1" class="node">
<title>Stage1</title>
<polygon fill="none" stroke="blue" points="154,-55.71 100,-55.71 100,-19.71 154,-19.71 154,-55.71"/>
<text text-anchor="middle" x="127" y="-35.21" font-family="arial" font-size="10.00" fill="blue">Stage1</text>
</g>
<!-- Flow1 -->
<g id="node3" class="node">
<title>Flow1</title>
<ellipse fill="none" stroke="blue" cx="57" cy="-37.71" rx="7" ry="7"/>
<text text-anchor="middle" x="57" y="-23.21" font-family="arial" font-size="10.00" fill="blue">Flow1</text>
</g>
<!-- Stage1&#45;&gt;Flow1 -->
<g id="edge7" class="edge">
<title>Stage1:nw&#45;&gt;Flow1</title>
<path fill="none" stroke="red" d="M100,-55.71C91.84,-63.87 79.39,-56.94 70.16,-49.44"/>
<polygon fill="red" stroke="red" points="72.3,-46.66 62.54,-42.54 67.61,-51.85 72.3,-46.66"/>
</g>
<!-- Flow2 -->
<g id="node4" class="node">
<title>Flow2</title>
<ellipse fill="none" stroke="blue" cx="197" cy="-37.71" rx="7" ry="7"/>
<text text-anchor="middle" x="197" y="-23.21" font-family="arial" font-size="10.00" fill="blue">Flow2</text>
</g>
<!-- Stage1&#45;&gt;Flow2 -->
<g id="edge4" class="edge">
<title>Stage1&#45;&gt;Flow2</title>
<path fill="none" stroke="blue" d="M154.1,-36.71C167.13,-36.71 181.8,-36.71 189.87,-36.71"/>
<path fill="none" stroke="blue" d="M154.1,-38.71C167.13,-38.71 181.8,-38.71 189.87,-38.71"/>
</g>
<!-- Stage1&#45;&gt;Flow2 -->
<g id="edge9" class="edge">
<title>Stage1:ne&#45;&gt;Flow2</title>
<path fill="none" stroke="red" d="M153,-55.71C161.5,-64.21 174.61,-56.79 184.12,-49.06"/>
<polygon fill="red" stroke="red" points="186.52,-51.61 191.61,-42.32 181.83,-46.41 186.52,-51.61"/>
</g>
<!-- Stage2 -->
<g id="node2" class="node">
<title>Stage2</title>
<polygon fill="none" stroke="blue" points="294,-55.71 240,-55.71 240,-19.71 294,-19.71 294,-55.71"/>
<text text-anchor="middle" x="267" y="-35.21" font-family="arial" font-size="10.00" fill="blue">Stage2</text>
</g>
<!-- Stage2&#45;&gt;Flow2 -->
<g id="edge10" class="edge">
<title>Stage2:nw&#45;&gt;Flow2</title>
<path fill="none" stroke="red" d="M240,-55.71C231.84,-63.87 219.39,-56.94 210.16,-49.44"/>
<polygon fill="red" stroke="red" points="212.3,-46.66 202.54,-42.54 207.61,-51.85 212.3,-46.66"/>
</g>
<!-- Flow1&#45;&gt;Stage1 -->
<g id="edge1" class="edge">
<title>Flow1&#45;&gt;Stage1</title>
<path fill="none" stroke="blue" d="M64.28,-36.71C70.28,-36.71 79.85,-36.71 89.68,-36.71"/>
<path fill="none" stroke="blue" d="M64.28,-38.71C70.28,-38.71 79.85,-38.71 89.68,-38.71"/>
<polygon fill="none" stroke="blue" points="89.88,-41.21 99.88,-37.71 89.88,-34.21 89.88,-41.21"/>
</g>
<!-- Flow2&#45;&gt;Stage2 -->
<g id="edge3" class="edge">
<title>Flow2&#45;&gt;Stage2</title>
<path fill="none" stroke="blue" d="M204.28,-36.71C210.28,-36.71 219.85,-36.71 229.68,-36.71"/>
<path fill="none" stroke="blue" d="M204.28,-38.71C210.28,-38.71 219.85,-38.71 229.68,-38.71"/>
<polygon fill="none" stroke="blue" points="229.88,-41.21 239.88,-37.71 229.88,-34.21 229.88,-41.21"/>
</g>
<!-- Input -->
<g id="node5" class="node">
<title>Input</title>
<ellipse fill="none" stroke="blue" cx="7" cy="-80.71" rx="7" ry="7"/>
<text text-anchor="middle" x="7" y="-66.21" font-family="arial" font-size="10.00" fill="blue">Input</text>
</g>
<!-- Input&#45;&gt;Flow1 -->
<g id="edge6" class="edge">
<title>Input&#45;&gt;Flow1</title>
<path fill="none" stroke="red" d="M12.78,-76.43C19.89,-70.05 33.52,-57.85 43.57,-48.84"/>
<polygon fill="red" stroke="red" points="46.13,-51.25 51.24,-41.97 41.46,-46.04 46.13,-51.25"/>
</g>
<!-- DelayTime -->
<g id="node6" class="node">
<title>DelayTime</title>
<ellipse fill="none" stroke="blue" cx="7" cy="-112.71" rx="7" ry="7"/>
<text text-anchor="middle" x="7" y="-98.21" font-family="arial" font-size="10.00" fill="blue">DelayTime</text>
</g>
<!-- DelayTime&#45;&gt;Flow1 -->
<g id="edge5" class="edge">
<title>DelayTime&#45;&gt;Flow1</title>
<path fill="none" stroke="red" d="M11.77,-106.82C19.23,-95.16 36.11,-68.79 46.72,-52.21"/>
<polygon fill="red" stroke="red" points="49.94,-53.67 52.38,-43.36 44.04,-49.9 49.94,-53.67"/>
</g>
<!-- DelayTime&#45;&gt;Flow2 -->
<g id="edge8" class="edge">
<title>DelayTime&#45;&gt;Flow2</title>
<path fill="none" stroke="red" d="M10.55,-106.36C18.5,-86.66 42.78,-27.52 50,-21.71 86.22,7.42 109.4,2.39 154,-10.71 164.76,-13.87 175.37,-20.73 183.24,-26.75"/>
<polygon fill="red" stroke="red" points="181.1,-29.52 191.05,-33.15 185.53,-24.1 181.1,-29.52"/>
</g>
<!-- Flow1_source -->
<g id="node7" class="node">
<title>Flow1_source</title>
<ellipse fill="none" stroke="transparent" cx="7" cy="-37.71" rx="0.5" ry="18"/>
<text text-anchor="middle" x="7" y="-34.01" font-family="arial" font-size="14.00" fill="blue">✽</text>
</g>
<!-- Flow1_source&#45;&gt;Flow1 -->
<g id="edge2" class="edge">
<title>Flow1_source&#45;&gt;Flow1</title>
<path fill="none" stroke="blue" d="M8.14,-36.71C10.29,-36.71 37.2,-36.71 49.7,-36.71"/>
<path fill="none" stroke="blue" d="M8.14,-38.71C10.29,-38.71 37.2,-38.71 49.7,-38.71"/>
</g>
</g>
</svg>
