<?xml version="1.0" encoding="UTF-8" standalone="no"?>
<!DOCTYPE svg PUBLIC "-//W3C//DTD SVG 1.1//EN"
 "http://www.w3.org/Graphics/SVG/1.1/DTD/svg11.dtd">
<!-- Generated by graphviz version 2.43.0 (0)
 -->
<!-- Title: G Pages: 1 -->
<svg width="274pt" height="44pt"
 viewBox="0.00 0.00 274.00 44.00" xmlns="http://www.w3.org/2000/svg" xmlns:xlink="http://www.w3.org/1999/xlink">
<g id="graph0" class="graph" transform="scale(1 1) rotate(0) translate(4 40)">
<title>G</title>
<polygon fill="white" stroke="transparent" points="-4,4 -4,-40 270,-40 270,4 -4,4"/>
<!-- Arrival -->
<g id="node1" class="node">
<title>Arrival</title>
<text text-anchor="middle" x="27.5" y="-21.2" font-family="arial" font-size="11.00">❚❚❱</text>
<text text-anchor="middle" x="27.5" y="-9.2" font-family="arial" font-size="11.00">Arrival</text>
</g>
<!-- Charger -->
<g id="node2" class="node">
<title>Charger</title>
<text text-anchor="middle" x="133" y="-21.2" font-family="arial" font-size="11.00">❚❚▣</text>
<text text-anchor="middle" x="133" y="-9.2" font-family="arial" font-size="11.00">Charger</text>
</g>
<!-- Arrival&#45;&gt;Charger -->
<g id="edge1" class="edge">
<title>Arrival&#45;&gt;Charger</title>
<path fill="none" stroke="black" d="M55.15,-18C67.16,-18 81.54,-18 94.6,-18"/>
<polygon fill="black" stroke="black" points="94.72,-21.5 104.72,-18 94.72,-14.5 94.72,-21.5"/>
</g>
<!-- Leave -->
<g id="node3" class="node">
<title>Leave</title>
<text text-anchor="middle" x="238.5" y="-21.2" font-family="arial" font-size="11.00">❱❚❚</text>
<text text-anchor="middle" x="238.5" y="-9.2" font-family="arial" font-size="11.00">Leave</text>
</g>
<!-- Charger&#45;&gt;Leave -->
<g id="edge2" class="edge">
<title>Charger&#45;&gt;Leave</title>
<path fill="none" stroke="black" d="M161.19,-18C173.29,-18 187.72,-18 200.76,-18"/>
<polygon fill="black" stroke="black" points="200.85,-21.5 210.85,-18 200.85,-14.5 200.85,-21.5"/>
</g>
</g>
</svg>
